<svg width="563" height="350" viewBox="0 0 563 350" fill="none" xmlns="http://www.w3.org/2000/svg">
<g clip-path="url(#clip0_298_5612)">
<path d="M107.046 216.32C109.321 214.045 113.01 214.045 115.285 216.32C121.618 222.653 133.661 234.695 140.003 241.028C142.278 243.303 142.278 246.993 140.003 249.268C137.728 251.543 134.038 251.543 131.763 249.268C125.316 242.82 113.493 230.997 107.046 224.55C104.771 222.275 104.771 218.586 107.046 216.311V216.32Z" fill="#EAFFCC"/>
<path d="M148.233 257.516C150.508 255.241 154.197 255.241 156.472 257.516C159.002 260.046 162.182 263.217 164.712 265.755C166.987 268.03 166.987 271.719 164.712 273.994C162.437 276.269 158.747 276.269 156.472 273.994C153.943 271.465 150.763 268.294 148.233 265.755C145.958 263.48 145.958 259.791 148.233 257.516Z" fill="#EAFFCC"/>
<path d="M172.942 282.225C175.217 279.95 178.907 279.95 181.182 282.225C185.784 286.828 193.057 294.101 197.651 298.703C199.926 300.978 199.926 304.668 197.651 306.943C195.376 309.218 191.687 309.218 189.412 306.943C184.809 302.349 177.536 295.067 172.934 290.473C170.659 288.198 170.659 284.509 172.934 282.234L172.942 282.225Z" fill="#EAFFCC"/>
<path d="M205.864 315.208L205.899 315.173C208.174 312.898 211.864 312.898 214.139 315.173C218.75 319.785 225.997 327.031 230.617 331.652C236.95 337.985 248.993 350.027 255.326 356.36C257.601 358.636 257.601 362.325 255.326 364.6C253.051 366.875 249.362 366.875 247.087 364.6C240.754 358.267 228.711 346.224 222.378 339.891C217.749 335.262 210.485 327.997 205.864 323.386C203.607 321.129 203.607 317.474 205.864 315.217V315.208Z" fill="#EAFFCC"/>
<path d="M107.476 182.932L107.512 182.897C109.769 180.64 113.423 180.64 115.681 182.897C120.275 187.491 127.574 194.79 132.185 199.402C134.46 201.677 134.46 205.366 132.185 207.641C129.91 209.916 126.221 209.916 123.946 207.641C119.343 203.039 112.07 195.766 107.468 191.163C105.193 188.888 105.193 185.199 107.468 182.924L107.476 182.932Z" fill="#EAFFCC"/>
<path d="M140.433 215.889C142.708 213.614 146.398 213.614 148.673 215.889C160.654 227.87 194.349 261.565 206.33 273.546C208.605 275.821 208.605 279.51 206.33 281.785C204.055 284.06 200.366 284.06 198.091 281.785C186.109 269.804 152.415 236.11 140.433 224.128C138.158 221.853 138.158 218.164 140.433 215.889Z" fill="#EAFFCC"/>
<path d="M214.569 290.025C216.844 287.75 220.533 287.75 222.808 290.025C229.141 296.358 241.184 308.401 247.517 314.734C250.047 317.264 253.218 320.435 255.748 322.964C258.023 325.239 258.023 328.928 255.748 331.204C253.473 333.479 249.783 333.479 247.508 331.204C244.979 328.674 241.799 325.494 239.269 322.964C232.936 316.631 220.893 304.597 214.56 298.255C212.285 295.98 212.285 292.291 214.56 290.016L214.569 290.025Z" fill="#EAFFCC"/>
<path d="M48.9501 192.041C51.2251 189.766 54.9144 189.766 57.1894 192.041C69.0563 203.908 102.795 237.638 114.855 249.707C117.13 251.982 117.13 255.671 114.855 257.946L114.82 257.982C112.563 260.239 108.909 260.239 106.651 257.982C94.8105 246.132 60.8083 212.139 48.9589 200.28C46.6839 198.005 46.6839 194.316 48.9589 192.041H48.9501Z" fill="#EAFFCC"/>
<path d="M123.051 266.212L123.086 266.176C125.361 263.901 129.05 263.901 131.325 266.176C135.928 270.779 143.201 278.052 147.804 282.655C150.079 284.93 150.079 288.619 147.804 290.894C145.528 293.169 141.839 293.169 139.564 290.894C134.953 286.283 127.653 278.983 123.059 274.389C120.802 272.132 120.802 268.478 123.059 266.212H123.051Z" fill="#EAFFCC"/>
<path d="M156.042 299.134C158.317 296.858 162.006 296.858 164.281 299.134C172.503 307.346 189.183 324.036 197.238 332.082C199.513 334.357 199.513 338.046 197.238 340.321C194.963 342.596 191.274 342.596 188.999 340.321C180.926 332.249 164.123 315.445 156.042 307.364C153.767 305.089 153.767 301.4 156.042 299.125V299.134Z" fill="#EAFFCC"/>
<path d="M205.46 348.56C206.883 347.137 208.859 346.602 210.695 346.962C211.802 347.172 212.847 347.708 213.699 348.56C225.575 360.427 259.305 394.166 271.365 406.226C273.64 408.501 273.64 412.19 271.365 414.465L271.33 414.501C269.072 416.758 265.418 416.758 263.152 414.501C251.312 402.66 217.318 368.667 205.46 356.808C205.179 356.527 204.924 356.22 204.713 355.895C203.22 353.629 203.466 350.563 205.46 348.569V348.56Z" fill="#EAFFCC"/>
<path d="M81.4675 258.377L81.5027 258.342C83.7601 256.084 87.4142 256.084 89.6716 258.342C94.2831 262.962 101.547 270.226 106.176 274.846C108.452 277.121 108.452 280.811 106.176 283.086C103.901 285.361 100.212 285.361 97.9372 283.086C93.3169 278.465 86.0791 271.227 81.4588 266.607C79.1837 264.332 79.1837 260.643 81.4588 258.368L81.4675 258.377Z" fill="#EAFFCC"/>
<path d="M114.416 291.334C116.691 289.059 120.38 289.059 122.646 291.334C125.176 293.863 128.356 297.043 130.885 299.573C133.16 301.848 133.16 305.537 130.885 307.812C128.61 310.087 124.921 310.087 122.646 307.812C120.116 305.282 116.937 302.111 114.407 299.573C112.132 297.298 112.132 293.609 114.407 291.334H114.416Z" fill="#EAFFCC"/>
<path d="M139.134 316.043C141.409 313.768 145.098 313.768 147.373 316.043C160.391 329.052 179.961 348.631 196.8 365.469C204.696 373.366 221.851 390.512 229.748 398.418C232.023 400.693 232.023 404.382 229.748 406.657C227.473 408.932 223.784 408.932 221.509 406.657C213.603 398.76 196.457 381.605 188.56 373.709C176.641 361.789 151.862 337.01 139.134 324.282C136.859 322.007 136.859 318.318 139.134 316.043Z" fill="#EAFFCC"/>
<path d="M56.3192 267.046C58.5942 264.771 62.2834 264.771 64.5584 267.046C69.1611 271.649 76.4342 278.922 81.0369 283.525C83.3119 285.8 83.3119 289.489 81.0369 291.764C78.7619 294.039 75.0727 294.039 72.7977 291.764C68.1949 287.161 60.9219 279.888 56.3192 275.294C54.0442 273.019 54.0442 269.33 56.3192 267.055V267.046Z" fill="#EAFFCC"/>
<path d="M89.2676 300.003C91.5426 297.728 95.2318 297.728 97.5068 300.003C110.56 313.065 150.324 352.82 163.403 365.908C165.678 368.183 165.678 371.873 163.403 374.148C161.128 376.423 157.439 376.423 155.164 374.148C142.032 361.016 102.391 321.374 89.2676 308.251C86.9926 305.976 86.9926 302.287 89.2676 300.012V300.003Z" fill="#EAFFCC"/>
<path d="M47.6327 292.212L47.6502 292.195C49.9253 289.92 53.6145 289.92 55.8895 292.195C62.2314 298.528 74.2653 310.57 80.5984 316.903C82.8734 319.179 82.8734 322.868 80.5984 325.143L80.5633 325.178C78.3058 327.435 74.6517 327.435 72.3943 325.178C66.0611 318.845 53.9746 306.758 47.6327 300.416C45.3664 298.15 45.3664 294.478 47.6327 292.212Z" fill="#EAFFCC"/>
<path d="M88.8368 333.382C91.1118 331.107 94.8009 331.107 97.076 333.382C101.679 337.985 108.952 345.258 113.554 349.861C115.829 352.136 115.829 355.825 113.554 358.1C111.279 360.375 107.59 360.375 105.324 358.1C100.721 353.497 93.4482 346.224 88.8455 341.621C86.5705 339.346 86.5705 335.657 88.8455 333.382H88.8368Z" fill="#EAFFCC"/>
<path d="M-8.28528 100.997C-6.01027 98.7218 -2.32105 98.7218 -0.0460396 100.997C2.48371 103.527 5.66341 106.706 8.19315 109.236C10.4682 111.511 10.4682 115.2 8.19315 117.475C5.91814 119.75 2.22897 119.75 -0.0460396 117.475C-2.57579 114.946 -5.75554 111.766 -8.28528 109.236C-10.5603 106.961 -10.5603 103.272 -8.28528 100.997Z" fill="#EAFFCC"/>
<path d="M16.4315 125.705C18.7065 123.43 22.3957 123.43 24.6707 125.705C29.2734 130.308 36.5465 137.581 41.1492 142.175C43.4242 144.45 43.4242 148.139 41.1492 150.414C38.8742 152.689 35.185 152.689 32.91 150.414C28.3072 145.811 21.0342 138.538 16.4315 133.936C14.1565 131.661 14.1565 127.972 16.4315 125.697V125.705Z" fill="#EAFFCC"/>
<path d="M49.3446 158.689L49.3797 158.654C51.6548 156.379 55.344 156.379 57.619 158.654C62.2305 163.256 69.4421 170.477 74.0624 175.097C74.0712 175.106 74.0887 175.123 74.0975 175.132C80.4306 181.465 92.4733 193.508 98.8064 199.841C101.081 202.116 101.081 205.805 98.8064 208.08C96.5314 210.355 92.8422 210.355 90.5672 208.08C84.234 201.747 72.1914 189.704 65.8582 183.371C61.2292 178.742 53.9649 171.478 49.3534 166.866C47.096 164.609 47.096 160.955 49.3534 158.697L49.3446 158.689Z" fill="#EAFFCC"/>
<path d="M-16.0857 59.3701C-13.8107 57.0951 -10.1215 57.0951 -7.8465 59.3701C4.14344 71.3512 37.8294 105.046 49.8194 117.027C52.0944 119.302 52.0944 122.991 49.8194 125.266C47.5444 127.541 43.8551 127.541 41.5801 125.266C29.599 113.285 -4.0958 79.5905 -16.0857 67.6005C-18.3608 65.3255 -18.3608 61.6363 -16.0857 59.3613V59.3701Z" fill="#EAFFCC"/>
<path d="M58.0586 133.514C60.3336 131.239 64.0228 131.239 66.2978 133.514C72.631 139.848 84.6824 151.89 91.0068 158.223C93.5365 160.762 96.7075 163.933 99.2372 166.463C101.512 168.738 101.512 172.427 99.2372 174.702C96.9622 176.977 93.273 176.977 91.0068 174.702C88.477 172.172 85.3061 168.992 82.7675 166.463C76.4256 160.121 64.3917 148.087 58.0586 141.754C55.7836 139.479 55.7836 135.789 58.0586 133.514Z" fill="#EAFFCC"/>
<path d="M-0.476707 142.614C1.79831 140.339 5.48752 140.339 7.76254 142.614C15.9842 150.836 32.6647 167.517 40.7195 175.571C42.9945 177.846 42.9945 181.536 40.7195 183.811C38.4445 186.086 34.7553 186.086 32.4803 183.811C24.4079 175.738 7.60442 158.935 -0.476707 150.854C-2.75172 148.579 -2.75172 144.889 -0.476707 142.614Z" fill="#EAFFCC"/>
<path d="M-17.3858 159.523C-15.1108 157.248 -11.4216 157.248 -9.14656 159.523C3.87109 172.532 23.4415 192.111 40.2801 208.95C48.1768 216.847 65.3316 234.002 73.2283 241.898C75.5033 244.173 75.5033 247.862 73.2283 250.137C70.9533 252.412 67.2641 252.412 64.9891 250.137C57.0924 242.241 39.9375 225.086 32.0409 217.189C20.1212 205.27 -4.65802 180.49 -17.3858 167.763C-19.6608 165.488 -19.6608 161.798 -17.3858 159.523Z" fill="#EAFFCC"/>
<path d="M-67.252 143.484C-64.977 141.209 -61.2878 141.209 -59.0127 143.484C-45.96 156.537 -6.19555 196.301 6.88358 209.38C9.1586 211.655 9.1586 215.345 6.88358 217.62C4.60857 219.895 0.919352 219.895 -1.35566 217.62C-14.4875 204.488 -54.1289 164.855 -67.252 151.723C-69.527 149.448 -69.527 145.759 -67.252 143.484Z" fill="#EAFFCC"/>
<path d="M13.7175 228.231C13.7614 228.081 13.7877 227.932 13.8492 227.792C13.8492 227.774 13.8668 227.765 13.8756 227.748C14.1567 227.062 14.5783 226.421 15.1317 225.868L15.1668 225.833C17.4242 223.575 21.0871 223.575 23.3358 225.833C29.7744 232.271 41.6237 244.112 48.0799 250.577C50.3549 252.852 50.3549 256.541 48.0799 258.816C45.8049 261.091 42.1156 261.091 39.8406 258.816C33.5075 252.483 21.4648 240.44 15.1317 234.107C13.5418 232.517 13.0851 230.242 13.7175 228.239V228.231Z" fill="#EAFFCC"/>
<path d="M-2.52312 243.681C-2.31231 243.356 -2.05759 243.058 -1.77651 242.768C0.498501 240.493 4.18772 240.493 6.46273 242.768C14.3594 250.664 31.5143 267.819 39.4109 275.716C41.6859 277.991 41.6859 281.68 39.4109 283.955C37.1359 286.23 33.4467 286.23 31.1717 283.955C23.275 276.059 6.12016 258.904 -1.77651 251.007C-2.34746 250.436 -2.7691 249.786 -3.05897 249.083C-3.77046 247.335 -3.59475 245.306 -2.52312 243.681Z" fill="#EAFFCC"/>
<path d="M263.996 339.451L264.031 339.416C266.289 337.159 269.951 337.159 272.2 339.416C276.803 344.01 284.093 351.31 288.714 355.921C290.989 358.196 290.989 361.885 288.714 364.16C286.439 366.435 282.749 366.435 280.483 364.16C275.88 359.558 268.607 352.285 264.005 347.682C261.73 345.407 261.73 341.718 264.005 339.443L263.996 339.451Z" fill="#EAFFCC"/>
</g>
<defs>
<clipPath id="clip0_298_5612">
<rect width="722.26" height="722.26" fill="white" transform="matrix(-1 0 0 1 562.26 0)"/>
</clipPath>
</defs>
</svg>
