<svg width="38" height="40" viewBox="0 0 38 40" fill="none" xmlns="http://www.w3.org/2000/svg">
<path fill-rule="evenodd" clip-rule="evenodd" d="M25.049 37.3277C28.5352 36.3494 32.185 35.8559 35.7257 35.4038C36.4883 35.309 37.1963 35.8379 37.2507 36.5831C37.3597 37.3288 36.8147 38.0108 36.1065 38.1056C32.6748 38.5408 29.1345 39.0065 25.8118 39.9483C25.1037 40.1526 24.3408 39.7321 24.1229 39.0087C23.905 38.2859 24.3409 37.5325 25.049 37.3277Z" fill="#333333"/>
<path fill-rule="evenodd" clip-rule="evenodd" d="M14.4821 23.458C20.0926 17.7325 26.4112 12.744 31.9128 6.86498C32.403 6.31591 33.2746 6.28649 33.8193 6.79907C34.364 7.31219 34.4183 8.17501 33.8736 8.72407C28.372 14.62 22.0533 19.6248 16.4428 25.3672C15.8981 25.9032 15.0268 25.9108 14.4821 25.3835C13.9918 24.8568 13.9373 23.994 14.4821 23.458Z" fill="#333333"/>
<path fill-rule="evenodd" clip-rule="evenodd" d="M3.96842 1.43573C3.805 4.71271 3.64191 7.98969 3.4785 11.2672C3.4785 12.0178 2.82452 12.5974 2.06193 12.5609C1.29933 12.5239 0.754943 11.8849 0.754943 11.1338C0.918356 7.85133 1.08145 4.56945 1.24486 1.28756C1.29933 0.536953 1.95309 -0.0388069 2.71569 0.00204639C3.42381 0.0428997 4.02289 0.68566 3.96842 1.43573Z" fill="#333333"/>
</svg>
