<svg width="510" height="334" viewBox="0 0 510 334" fill="none" xmlns="http://www.w3.org/2000/svg">
<g clip-path="url(#clip0_370_7118)">
<path d="M54.046 216.32C56.321 214.045 60.0102 214.045 62.2853 216.32C68.6184 222.653 80.661 234.695 87.003 241.028C89.278 243.303 89.278 246.993 87.003 249.268C84.728 251.543 81.0387 251.543 78.7637 249.268C72.3164 242.82 60.4933 230.997 54.046 224.55C51.771 222.275 51.771 218.586 54.046 216.311V216.32Z" fill="#EAFFCC"/>
<path d="M95.2335 257.516C97.5085 255.241 101.198 255.241 103.473 257.516C106.002 260.046 109.182 263.217 111.712 265.755C113.987 268.03 113.987 271.719 111.712 273.994C109.437 276.269 105.748 276.269 103.473 273.994C100.943 271.465 97.7632 268.294 95.2335 265.755C92.9584 263.48 92.9584 259.791 95.2335 257.516Z" fill="#EAFFCC"/>
<path d="M119.943 282.225C122.218 279.95 125.907 279.95 128.182 282.225C132.785 286.828 140.058 294.101 144.652 298.703C146.927 300.978 146.927 304.668 144.652 306.943C142.377 309.218 138.687 309.218 136.412 306.943C131.81 302.349 124.537 295.067 119.934 290.473C117.659 288.198 117.659 284.509 119.934 282.234L119.943 282.225Z" fill="#EAFFCC"/>
<path d="M152.865 315.208L152.9 315.173C155.175 312.898 158.864 312.898 161.139 315.173C165.75 319.785 172.997 327.031 177.617 331.652C183.951 337.985 195.993 350.027 202.326 356.36C204.601 358.636 204.601 362.325 202.326 364.6C200.051 366.875 196.362 366.875 194.087 364.6C187.754 358.267 175.711 346.224 169.378 339.891C164.749 335.262 157.485 327.997 152.865 323.386C150.607 321.129 150.607 317.474 152.865 315.217V315.208Z" fill="#EAFFCC"/>
<path d="M54.4767 182.932L54.5118 182.897C56.7693 180.64 60.4234 180.64 62.6808 182.897C67.2748 187.491 74.5741 194.79 79.1856 199.402C81.4607 201.677 81.4607 205.366 79.1856 207.641C76.9106 209.916 73.2214 209.916 70.9464 207.641C66.3437 203.039 59.0706 195.766 54.4679 191.163C52.1929 188.888 52.1929 185.199 54.4679 182.924L54.4767 182.932Z" fill="#EAFFCC"/>
<path d="M87.4337 215.889C89.7087 213.614 93.3979 213.614 95.6729 215.889C107.654 227.87 141.349 261.565 153.33 273.546C155.605 275.821 155.605 279.51 153.33 281.785C151.055 284.06 147.366 284.06 145.091 281.785C133.11 269.804 99.4148 236.11 87.4337 224.128C85.1587 221.853 85.1587 218.164 87.4337 215.889Z" fill="#EAFFCC"/>
<path d="M161.569 290.025C163.844 287.75 167.534 287.75 169.809 290.025C176.142 296.358 188.184 308.401 194.518 314.734C197.047 317.264 200.218 320.435 202.748 322.964C205.023 325.239 205.023 328.928 202.748 331.204C200.473 333.479 196.784 333.479 194.509 331.204C191.979 328.674 188.799 325.494 186.269 322.964C179.936 316.631 167.894 304.597 161.561 298.255C159.286 295.98 159.286 292.291 161.561 290.016L161.569 290.025Z" fill="#EAFFCC"/>
<path d="M-4.04964 192.041C-1.77462 189.766 1.9146 189.766 4.18961 192.041C16.0566 203.908 49.7953 237.638 61.8555 249.707C64.1305 251.982 64.1305 255.671 61.8555 257.946L61.8204 257.982C59.5629 260.239 55.9089 260.239 53.6514 257.982C41.8108 246.132 7.80856 212.139 -4.04084 200.28C-6.31586 198.005 -6.31586 194.316 -4.04084 192.041H-4.04964Z" fill="#EAFFCC"/>
<path d="M70.0509 266.212L70.086 266.176C72.361 263.901 76.0502 263.901 78.3253 266.176C82.928 270.779 90.201 278.052 94.8037 282.655C97.0788 284.93 97.0788 288.619 94.8037 290.894C92.5287 293.169 88.8395 293.169 86.5645 290.894C81.953 286.283 74.6536 278.983 70.0597 274.389C67.8022 272.132 67.8022 268.478 70.0597 266.212H70.0509Z" fill="#EAFFCC"/>
<path d="M103.042 299.134C105.317 296.858 109.006 296.858 111.281 299.134C119.503 307.346 136.184 324.036 144.238 332.082C146.513 334.357 146.513 338.046 144.238 340.321C141.963 342.596 138.274 342.596 135.999 340.321C127.927 332.249 111.123 315.445 103.042 307.364C100.767 305.089 100.767 301.4 103.042 299.125V299.134Z" fill="#EAFFCC"/>
<path d="M28.4678 258.377L28.5029 258.342C30.7604 256.084 34.4144 256.084 36.6719 258.342C41.2834 262.962 48.5477 270.226 53.1767 274.846C55.4517 277.121 55.4517 280.811 53.1767 283.086C50.9017 285.361 47.2125 285.361 44.9375 283.086C40.3172 278.465 33.0793 271.227 28.459 266.607C26.184 264.332 26.184 260.643 28.459 258.368L28.4678 258.377Z" fill="#EAFFCC"/>
<path d="M61.416 291.334C63.691 289.059 67.3802 289.059 69.6464 291.334C72.1762 293.863 75.3559 297.043 77.8857 299.573C80.1607 301.848 80.1607 305.537 77.8857 307.812C75.6106 310.087 71.9214 310.087 69.6464 307.812C67.1167 305.282 63.9369 302.111 61.4072 299.573C59.1322 297.298 59.1322 293.609 61.4072 291.334H61.416Z" fill="#EAFFCC"/>
<path d="M86.134 316.043C88.409 313.768 92.0982 313.768 94.3732 316.043C107.391 329.052 126.961 348.631 143.8 365.469C151.697 373.366 168.851 390.512 176.748 398.418C179.023 400.693 179.023 404.382 176.748 406.657C174.473 408.932 170.784 408.932 168.509 406.657C160.603 398.76 143.457 381.605 135.561 373.709C123.641 361.789 98.8618 337.01 86.134 324.282C83.859 322.007 83.859 318.318 86.134 316.043Z" fill="#EAFFCC"/>
<path d="M3.31941 267.046C5.59442 264.771 9.28364 264.771 11.5587 267.046C16.1614 271.649 23.4344 278.922 28.0371 283.525C30.3122 285.8 30.3122 289.489 28.0371 291.764C25.7621 294.039 22.0729 294.039 19.7979 291.764C15.1952 287.161 7.92214 279.888 3.31941 275.294C1.0444 273.019 1.0444 269.33 3.31941 267.055V267.046Z" fill="#EAFFCC"/>
<path d="M36.2678 300.003C38.5428 297.728 42.232 297.728 44.5071 300.003C57.5598 313.065 97.3243 352.82 110.403 365.908C112.678 368.183 112.678 371.873 110.403 374.148C108.128 376.423 104.439 376.423 102.164 374.148C89.0323 361.016 49.3909 321.374 36.2678 308.251C33.9928 305.976 33.9928 302.287 36.2678 300.012V300.003Z" fill="#EAFFCC"/>
<path d="M-5.3671 292.212L-5.34952 292.195C-3.0745 289.92 0.614714 289.92 2.88973 292.195C9.23166 298.528 21.2655 310.57 27.5987 316.903C29.8737 319.179 29.8737 322.868 27.5987 325.143L27.5635 325.178C25.3061 327.435 21.652 327.435 19.3945 325.178C13.0614 318.845 0.974827 306.758 -5.3671 300.416C-7.63334 298.15 -7.63334 294.478 -5.3671 292.212Z" fill="#EAFFCC"/>
<path d="M35.837 333.382C38.112 331.107 41.8012 331.107 44.0762 333.382C48.6789 337.985 55.952 345.258 60.5547 349.861C62.8297 352.136 62.8297 355.825 60.5547 358.1C58.2797 360.375 54.5905 360.375 52.3242 358.1C47.7215 353.497 40.4485 346.224 35.8458 341.621C33.5707 339.346 33.5707 335.657 35.8458 333.382H35.837Z" fill="#EAFFCC"/>
<path d="M-3.65512 158.689L-3.62001 158.654C-1.34499 156.379 2.34422 156.379 4.61924 158.654C9.23075 163.256 16.4423 170.477 21.0626 175.097C21.0714 175.106 21.0889 175.123 21.0977 175.132C27.4309 181.465 39.4735 193.508 45.8067 199.841C48.0817 202.116 48.0817 205.805 45.8067 208.08C43.5317 210.355 39.8424 210.355 37.5674 208.08C31.2343 201.747 19.1916 189.704 12.8585 183.371C8.2294 178.742 0.965187 171.478 -3.64633 166.866C-5.90378 164.609 -5.90378 160.955 -3.64633 158.697L-3.65512 158.689Z" fill="#EAFFCC"/>
<path d="M5.05882 133.514C7.33384 131.239 11.0231 131.239 13.2981 133.514C19.6312 139.848 31.6826 151.89 38.007 158.223C40.5368 160.762 43.7077 163.933 46.2375 166.463C48.5125 168.738 48.5125 172.427 46.2375 174.702C43.9625 176.977 40.2732 176.977 38.007 174.702C35.4773 172.172 32.3063 168.992 29.7678 166.463C23.4258 160.121 11.392 148.087 5.05882 141.754C2.78381 139.479 2.78381 135.789 5.05882 133.514Z" fill="#EAFFCC"/>
<path d="M-70.3856 159.523C-68.1105 157.248 -64.4213 157.248 -62.1463 159.523C-49.1287 172.532 -29.5583 192.111 -12.7196 208.95C-4.82297 216.847 12.3319 234.002 20.2286 241.898C22.5036 244.173 22.5036 247.862 20.2286 250.137C17.9535 252.412 14.2643 252.412 11.9893 250.137C4.09264 242.241 -13.0622 225.086 -20.9589 217.189C-32.8786 205.27 -57.6578 180.49 -70.3856 167.763C-72.6606 165.488 -72.6606 161.798 -70.3856 159.523Z" fill="#EAFFCC"/>
</g>
<defs>
<clipPath id="clip0_370_7118">
<rect width="722.26" height="722.26" fill="white" transform="matrix(-1 0 0 1 509.26 0)"/>
</clipPath>
</defs>
</svg>
