<svg width="28" height="30" viewBox="0 0 28 30" fill="none" xmlns="http://www.w3.org/2000/svg">
<g clip-path="url(#clip0_298_5098)">
<path fill-rule="evenodd" clip-rule="evenodd" d="M11.1961 5.86313C11.1165 5.39038 11.0564 4.92299 11.0177 4.45555C10.9592 3.75439 10.9954 3.04787 10.9746 2.34672C10.9656 2.04925 10.93 1.27374 10.9444 1.16219C11.0745 0.19013 11.859 0.0413811 12.0885 0.0148221C12.1995 -0.00111337 13.3394 -0.12854 13.5854 1.13567C13.8871 2.68141 13.9838 4.23775 13.877 5.76224C14.1261 7.05832 14.5521 8.34906 15.1147 9.51766C17.3531 14.1655 21.6184 14.617 26.2397 14.5745C26.9504 14.5639 27.5406 15.1216 27.5778 15.8281C27.615 16.5399 27.0859 17.156 26.3784 17.2198C23.7952 17.4694 19.2122 19.5411 17.6277 21.6977C17.2962 22.1492 17.1034 23.2381 16.8484 24.3058C16.4925 25.7878 16.0692 27.2538 15.5948 27.87C15.5237 27.9656 14.6584 28.943 14.4002 29.0864C13.7798 29.4264 13.2831 29.2298 13.0011 29.0492C12.719 28.8686 12.3998 28.5127 12.2723 27.9231C12.139 27.3069 12.2516 26.0427 12.2309 25.7718C12.1554 24.7891 11.9589 22.8609 11.5579 21.2036C11.3417 20.3113 11.1111 19.4879 10.7298 19.0789C9.31788 17.5651 7.06036 17.7882 5.15926 18.0378C4.94095 18.0644 4.72264 18.0963 4.50485 18.1228C3.73092 18.3512 2.90916 18.5212 2.04068 18.6221C0.729194 18.7762 0.513549 17.5704 0.501863 17.4907C0.477429 17.3154 0.386587 16.4124 1.37512 16.0512C1.48295 16.014 2.27866 15.8387 2.58515 15.7697C3.01222 15.6741 3.44407 15.5997 3.87751 15.5307C8.35484 14.139 10.7866 10.2294 11.1961 5.86313ZM12.7328 10.6916C14.4231 14.1868 16.9881 15.8759 20.0286 16.6408H20.0281C18.1297 17.6341 16.4028 18.8771 15.4875 20.1254C15.1401 20.5982 14.8214 21.5489 14.5341 22.6166C14.3784 21.6233 14.1681 20.5662 13.8903 19.6632C13.5742 18.6327 13.1487 17.7776 12.6739 17.2676C11.7571 16.285 10.6065 15.7378 9.36939 15.4669C10.8503 14.1549 11.9733 12.5189 12.7328 10.6916Z" fill="#333333"/>
</g>
<defs>
<clipPath id="clip0_298_5098">
<rect width="27.8049" height="30" fill="white"/>
</clipPath>
</defs>
</svg>
