<svg width="18" height="19" viewBox="0 0 18 19" fill="none" xmlns="http://www.w3.org/2000/svg">
<g clip-path="url(#clip0_353_7131)">
<path fill-rule="evenodd" clip-rule="evenodd" d="M7.38463 4.21524C7.33757 3.93603 7.30212 3.65997 7.27922 3.38389C7.24471 2.96977 7.26604 2.55248 7.25381 2.13836C7.24847 1.96267 7.22745 1.50463 7.23592 1.43875C7.31278 0.864627 7.77616 0.776772 7.91169 0.761086C7.97726 0.751674 8.65052 0.676413 8.79578 1.42309C8.97397 2.33604 9.03108 3.25525 8.96802 4.15565C9.11516 4.92115 9.36677 5.6835 9.69901 6.3737C11.0211 9.11883 13.5403 9.3855 16.2697 9.36041C16.6895 9.35413 17.0381 9.68354 17.06 10.1008C17.082 10.5212 16.7695 10.8851 16.3516 10.9228C14.826 11.0702 12.1191 12.2938 11.1832 13.5675C10.9875 13.8342 10.8736 14.4773 10.723 15.1079C10.5128 15.9832 10.2628 16.8491 9.98262 17.213C9.94058 17.2695 9.42951 17.8468 9.27704 17.9315C8.9106 18.1323 8.61727 18.0162 8.45068 17.9095C8.28409 17.8029 8.09554 17.5927 8.02024 17.2444C7.9415 16.8805 8.00801 16.1338 7.99577 15.9738C7.95122 15.3934 7.83515 14.2546 7.59829 13.2757C7.4706 12.7487 7.33443 12.2624 7.10918 12.0208C6.27529 11.1267 4.94194 11.2585 3.8191 11.4059C3.69016 11.4216 3.56122 11.4404 3.43259 11.4561C2.97549 11.591 2.49014 11.6914 1.97719 11.751C1.20259 11.842 1.07523 11.1298 1.06832 11.0828C1.05389 10.9792 1.00024 10.4459 1.58409 10.2326C1.64778 10.2106 2.11775 10.1071 2.29877 10.0663C2.55101 10.0098 2.80606 9.96592 3.06207 9.92513C5.70649 9.10316 7.14274 6.7941 7.38463 4.21524ZM8.29225 7.06707C9.29053 9.1314 10.8055 10.129 12.6013 10.5808H12.601C11.4797 11.1675 10.4598 11.9016 9.91924 12.6389C9.71406 12.9181 9.52583 13.4797 9.3561 14.1103C9.26418 13.5236 9.13995 12.8993 8.97587 12.3659C8.7892 11.7573 8.53789 11.2522 8.25742 10.951C7.71592 10.3706 7.03638 10.0475 6.30571 9.88749C7.18038 9.11258 7.84362 8.1463 8.29225 7.06707Z" fill="#333333"/>
</g>
<defs>
<clipPath id="clip0_353_7131">
<rect width="16.4223" height="17.7188" fill="white" transform="translate(0.771851 0.752197)"/>
</clipPath>
</defs>
</svg>
