<svg width="26" height="40" viewBox="0 0 26 40" fill="none" xmlns="http://www.w3.org/2000/svg">
<path fill-rule="evenodd" clip-rule="evenodd" d="M25.049 37.328C28.5352 36.3497 32.185 35.8562 35.7257 35.4041C36.4883 35.3093 37.1963 35.8382 37.2507 36.5833C37.3597 37.3291 36.8147 38.011 36.1065 38.1058C32.6748 38.541 29.1345 39.0068 25.8118 39.9486C25.1037 40.1528 24.3408 39.7323 24.1229 39.0089C23.905 38.2861 24.3409 37.5328 25.049 37.328Z" fill="#333333"/>
<path fill-rule="evenodd" clip-rule="evenodd" d="M14.4819 23.458C20.0925 17.7325 26.4111 12.744 31.9127 6.86498C32.4029 6.31591 33.2745 6.28649 33.8192 6.79907C34.3639 7.31219 34.4182 8.17501 33.8734 8.72407C28.3719 14.62 22.0532 19.6248 16.4427 25.3672C15.898 25.9032 15.0267 25.9108 14.4819 25.3835C13.9917 24.8568 13.9372 23.994 14.4819 23.458Z" fill="#333333"/>
<path fill-rule="evenodd" clip-rule="evenodd" d="M3.96836 1.43573C3.80494 4.71271 3.64185 7.98969 3.47844 11.2672C3.47844 12.0178 2.82446 12.5974 2.06187 12.5609C1.29927 12.5239 0.754882 11.8849 0.754882 11.1338C0.918295 7.85133 1.08139 4.56945 1.2448 1.28756C1.29927 0.536953 1.95303 -0.0388069 2.71563 0.00204639C3.42375 0.0428997 4.02283 0.68566 3.96836 1.43573Z" fill="#333333"/>
</svg>
