<svg width="23" height="25" viewBox="0 0 23 25" fill="none" xmlns="http://www.w3.org/2000/svg">
<path fill-rule="evenodd" clip-rule="evenodd" d="M8.08681 22.7182C6.02781 22.1404 3.8721 21.849 1.78092 21.5819C1.33051 21.526 0.912335 21.8383 0.880163 22.2785C0.815819 22.7189 1.13773 23.1217 1.55596 23.1777C3.5828 23.4347 5.67379 23.7098 7.63628 24.266C8.05452 24.3867 8.50511 24.1383 8.6338 23.7111C8.76249 23.2841 8.50505 22.8392 8.08681 22.7182Z" fill="#333333"/>
<path fill-rule="evenodd" clip-rule="evenodd" d="M14.3279 14.5265C11.0142 11.1449 7.28223 8.19859 4.03286 4.72627C3.74331 4.40197 3.22856 4.3846 2.90684 4.68734C2.58512 4.9904 2.55307 5.5 2.87479 5.82429C6.12416 9.30659 9.85611 12.2626 13.1698 15.6541C13.4915 15.9707 14.0062 15.9752 14.3279 15.6638C14.6174 15.3527 14.6496 14.8431 14.3279 14.5265Z" fill="#333333"/>
<path fill-rule="evenodd" clip-rule="evenodd" d="M20.5374 1.51961C20.634 3.45507 20.7303 5.39054 20.8268 7.32633C20.8268 7.76966 21.213 8.11197 21.6635 8.09041C22.1139 8.06853 22.4354 7.69116 22.4354 7.24751C22.3389 5.30882 22.2426 3.37046 22.146 1.4321C22.1139 0.988769 21.7277 0.648711 21.2773 0.67284C20.8591 0.696968 20.5053 1.0766 20.5374 1.51961Z" fill="#333333"/>
</svg>
