<svg width="532" height="350" viewBox="0 0 532 350" fill="none" xmlns="http://www.w3.org/2000/svg">
<g clip-path="url(#clip0_298_5525)">
<path d="M455.214 216.32C452.939 214.045 449.25 214.045 446.975 216.32C440.642 222.653 428.599 234.695 422.257 241.028C419.982 243.303 419.982 246.993 422.257 249.268C424.532 251.543 428.221 251.543 430.496 249.268C436.944 242.82 448.767 230.997 455.214 224.55C457.489 222.275 457.489 218.586 455.214 216.311V216.32Z" fill="#EAFFCC"/>
<path d="M414.027 257.516C411.752 255.241 408.062 255.241 405.787 257.516C403.258 260.046 400.078 263.217 397.548 265.755C395.273 268.03 395.273 271.719 397.548 273.994C399.823 276.269 403.512 276.269 405.787 273.994C408.317 271.465 411.497 268.294 414.027 265.755C416.302 263.48 416.302 259.791 414.027 257.516Z" fill="#EAFFCC"/>
<path d="M389.317 282.225C387.042 279.95 383.353 279.95 381.078 282.225C376.475 286.828 369.202 294.101 364.608 298.703C362.333 300.978 362.333 304.668 364.608 306.943C366.883 309.218 370.573 309.218 372.848 306.943C377.45 302.349 384.723 295.067 389.326 290.473C391.601 288.198 391.601 284.509 389.326 282.234L389.317 282.225Z" fill="#EAFFCC"/>
<path d="M356.396 315.208L356.36 315.173C354.085 312.898 350.396 312.898 348.121 315.173C343.51 319.785 336.263 327.031 331.643 331.652C325.31 337.985 313.267 350.027 306.934 356.36C304.659 358.636 304.659 362.325 306.934 364.6C309.209 366.875 312.898 366.875 315.173 364.6C321.506 358.267 333.549 346.224 339.882 339.891C344.511 335.262 351.775 327.997 356.396 323.386C358.653 321.129 358.653 317.474 356.396 315.217V315.208Z" fill="#EAFFCC"/>
<path d="M454.783 182.932L454.748 182.897C452.491 180.64 448.837 180.64 446.579 182.897C441.985 187.491 434.686 194.79 430.074 199.402C427.799 201.677 427.799 205.366 430.074 207.641C432.349 209.916 436.039 209.916 438.314 207.641C442.916 203.039 450.189 195.766 454.792 191.163C457.067 188.888 457.067 185.199 454.792 182.924L454.783 182.932Z" fill="#EAFFCC"/>
<path d="M421.826 215.889C419.551 213.614 415.862 213.614 413.587 215.889C401.606 227.87 367.911 261.565 355.93 273.546C353.655 275.821 353.655 279.51 355.93 281.785C358.205 284.06 361.894 284.06 364.169 281.785C376.15 269.804 409.845 236.11 421.826 224.128C424.101 221.853 424.101 218.164 421.826 215.889Z" fill="#EAFFCC"/>
<path d="M347.691 290.025C345.416 287.75 341.726 287.75 339.451 290.025C333.118 296.358 321.076 308.401 314.743 314.734C312.213 317.264 309.042 320.435 306.512 322.964C304.237 325.239 304.237 328.928 306.512 331.204C308.787 333.479 312.476 333.479 314.751 331.204C317.281 328.674 320.461 325.494 322.991 322.964C329.324 316.631 341.366 304.597 347.699 298.255C349.975 295.98 349.975 292.291 347.699 290.016L347.691 290.025Z" fill="#EAFFCC"/>
<path d="M513.31 192.041C511.035 189.766 507.345 189.766 505.07 192.041C493.203 203.908 459.465 237.638 447.405 249.707C445.129 251.982 445.129 255.671 447.405 257.946L447.44 257.982C449.697 260.239 453.351 260.239 455.609 257.982C467.449 246.132 501.451 212.139 513.301 200.28C515.576 198.005 515.576 194.316 513.301 192.041H513.31Z" fill="#EAFFCC"/>
<path d="M439.209 266.212L439.174 266.176C436.899 263.901 433.21 263.901 430.935 266.176C426.332 270.779 419.059 278.052 414.456 282.655C412.181 284.93 412.181 288.619 414.456 290.894C416.731 293.169 420.42 293.169 422.696 290.894C427.307 286.283 434.606 278.983 439.2 274.389C441.458 272.132 441.458 268.478 439.2 266.212H439.209Z" fill="#EAFFCC"/>
<path d="M406.218 299.134C403.943 296.858 400.254 296.858 397.979 299.134C389.757 307.346 373.076 324.036 365.022 332.082C362.747 334.357 362.747 338.046 365.022 340.321C367.297 342.596 370.986 342.596 373.261 340.321C381.333 332.249 398.137 315.445 406.218 307.364C408.493 305.089 408.493 301.4 406.218 299.125V299.134Z" fill="#EAFFCC"/>
<path d="M356.8 348.56C355.377 347.137 353.401 346.602 351.565 346.962C350.458 347.172 349.413 347.708 348.561 348.56C336.685 360.427 302.955 394.166 290.895 406.226C288.62 408.501 288.62 412.19 290.895 414.465L290.93 414.501C293.187 416.758 296.841 416.758 299.108 414.501C310.948 402.66 344.942 368.667 356.8 356.808C357.081 356.527 357.336 356.22 357.546 355.895C359.04 353.629 358.794 350.563 356.8 348.569V348.56Z" fill="#EAFFCC"/>
<path d="M480.792 258.377L480.757 258.342C478.5 256.084 474.846 256.084 472.588 258.342C467.977 262.962 460.712 270.226 456.083 274.846C453.808 277.121 453.808 280.811 456.083 283.086C458.358 285.361 462.048 285.361 464.323 283.086C468.943 278.465 476.181 271.227 480.801 266.607C483.076 264.332 483.076 260.643 480.801 258.368L480.792 258.377Z" fill="#EAFFCC"/>
<path d="M447.844 291.334C445.569 289.059 441.88 289.059 439.614 291.334C437.084 293.863 433.904 297.043 431.374 299.573C429.099 301.848 429.099 305.537 431.374 307.812C433.649 310.087 437.339 310.087 439.614 307.812C442.143 305.282 445.323 302.111 447.853 299.573C450.128 297.298 450.128 293.609 447.853 291.334H447.844Z" fill="#EAFFCC"/>
<path d="M423.126 316.043C420.851 313.768 417.162 313.768 414.887 316.043C401.869 329.052 382.299 348.631 365.46 365.469C357.563 373.366 340.409 390.512 332.512 398.418C330.237 400.693 330.237 404.382 332.512 406.657C334.787 408.932 338.476 408.932 340.751 406.657C348.657 398.76 365.803 381.605 373.699 373.709C385.619 361.789 410.398 337.01 423.126 324.282C425.401 322.007 425.401 318.318 423.126 316.043Z" fill="#EAFFCC"/>
<path d="M505.941 267.046C503.666 264.771 499.976 264.771 497.701 267.046C493.099 271.649 485.826 278.922 481.223 283.525C478.948 285.8 478.948 289.489 481.223 291.764C483.498 294.039 487.187 294.039 489.462 291.764C494.065 287.161 501.338 279.888 505.941 275.294C508.216 273.019 508.216 269.33 505.941 267.055V267.046Z" fill="#EAFFCC"/>
<path d="M472.992 300.003C470.717 297.728 467.028 297.728 464.753 300.003C451.7 313.065 411.936 352.82 398.857 365.908C396.582 368.183 396.582 371.873 398.857 374.148C401.132 376.423 404.821 376.423 407.096 374.148C420.228 361.016 459.869 321.374 472.992 308.251C475.267 305.976 475.267 302.287 472.992 300.012V300.003Z" fill="#EAFFCC"/>
<path d="M514.627 292.212L514.61 292.195C512.335 289.92 508.645 289.92 506.37 292.195C500.028 298.528 487.994 310.57 481.661 316.903C479.386 319.179 479.386 322.868 481.661 325.143L481.697 325.178C483.954 327.435 487.608 327.435 489.865 325.178C496.199 318.845 508.285 306.758 514.627 300.416C516.893 298.15 516.893 294.478 514.627 292.212Z" fill="#EAFFCC"/>
<path d="M473.423 333.382C471.148 331.107 467.459 331.107 465.184 333.382C460.581 337.985 453.308 345.258 448.705 349.861C446.43 352.136 446.43 355.825 448.705 358.1C450.98 360.375 454.67 360.375 456.936 358.1C461.538 353.497 468.812 346.224 473.414 341.621C475.689 339.346 475.689 335.657 473.414 333.382H473.423Z" fill="#EAFFCC"/>
<path d="M545.828 125.705C543.553 123.43 539.864 123.43 537.589 125.705C532.986 130.308 525.713 137.581 521.111 142.175C518.836 144.45 518.836 148.139 521.111 150.414C523.386 152.689 527.075 152.689 529.35 150.414C533.953 145.811 541.226 138.538 545.828 133.936C548.103 131.661 548.103 127.972 545.828 125.697V125.705Z" fill="#EAFFCC"/>
<path d="M512.915 158.689L512.88 158.654C510.605 156.379 506.916 156.379 504.641 158.654C500.029 163.256 492.818 170.477 488.197 175.097C488.189 175.106 488.171 175.123 488.162 175.132C481.829 181.465 469.786 193.508 463.453 199.841C461.178 202.116 461.178 205.805 463.453 208.08C465.728 210.355 469.418 210.355 471.693 208.08C478.026 201.747 490.068 189.704 496.402 183.371C501.031 178.742 508.295 171.478 512.906 166.866C515.164 164.609 515.164 160.955 512.906 158.697L512.915 158.689Z" fill="#EAFFCC"/>
<path d="M578.346 59.3701C576.07 57.0951 572.381 57.0951 570.106 59.3701C558.116 71.3512 524.43 105.046 512.44 117.027C510.165 119.302 510.165 122.991 512.44 125.266C514.715 127.541 518.405 127.541 520.68 125.266C532.661 113.285 566.356 79.5905 578.346 67.6005C580.621 65.3255 580.621 61.6363 578.346 59.3613V59.3701Z" fill="#EAFFCC"/>
<path d="M504.201 133.514C501.926 131.239 498.237 131.239 495.962 133.514C489.629 139.848 477.577 151.89 471.253 158.223C468.723 160.762 465.552 163.933 463.023 166.463C460.748 168.738 460.748 172.427 463.023 174.702C465.298 176.977 468.987 176.977 471.253 174.702C473.783 172.172 476.954 168.992 479.492 166.463C485.834 160.121 497.868 148.087 504.201 141.754C506.476 139.479 506.476 135.789 504.201 133.514Z" fill="#EAFFCC"/>
<path d="M562.736 142.614C560.461 140.339 556.772 140.339 554.497 142.614C546.276 150.836 529.595 167.517 521.54 175.571C519.265 177.846 519.265 181.536 521.54 183.811C523.815 186.086 527.504 186.086 529.779 183.811C537.852 175.738 554.655 158.935 562.736 150.854C565.011 148.579 565.011 144.889 562.736 142.614Z" fill="#EAFFCC"/>
<path d="M579.646 159.523C577.371 157.248 573.681 157.248 571.406 159.523C558.389 172.532 538.818 192.111 521.98 208.95C514.083 216.847 496.928 234.002 489.031 241.898C486.756 244.173 486.756 247.862 489.031 250.137C491.306 252.412 494.996 252.412 497.271 250.137C505.167 242.241 522.322 225.086 530.219 217.189C542.139 205.27 566.918 180.49 579.646 167.763C581.921 165.488 581.921 161.798 579.646 159.523Z" fill="#EAFFCC"/>
<path d="M548.542 228.231C548.498 228.081 548.472 227.932 548.411 227.792C548.411 227.774 548.393 227.765 548.384 227.748C548.103 227.062 547.681 226.421 547.128 225.868L547.093 225.833C544.836 223.575 541.173 223.575 538.924 225.833C532.485 232.271 520.636 244.112 514.18 250.577C511.905 252.852 511.905 256.541 514.18 258.816C516.455 261.091 520.144 261.091 522.419 258.816C528.752 252.483 540.795 240.44 547.128 234.107C548.718 232.517 549.175 230.242 548.542 228.239V228.231Z" fill="#EAFFCC"/>
<path d="M564.783 243.681C564.572 243.356 564.317 243.058 564.036 242.768C561.761 240.493 558.072 240.493 555.797 242.768C547.9 250.664 530.746 267.819 522.849 275.716C520.574 277.991 520.574 281.68 522.849 283.955C525.124 286.23 528.813 286.23 531.088 283.955C538.985 276.059 556.14 258.904 564.036 251.007C564.607 250.436 565.029 249.786 565.319 249.083C566.03 247.335 565.855 245.306 564.783 243.681Z" fill="#EAFFCC"/>
<path d="M298.264 339.451L298.229 339.416C295.971 337.159 292.308 337.159 290.06 339.416C285.457 344.01 278.166 351.31 273.546 355.921C271.271 358.196 271.271 361.885 273.546 364.16C275.821 366.435 279.51 366.435 281.777 364.16C286.379 359.558 293.652 352.285 298.255 347.682C300.53 345.407 300.53 341.718 298.255 339.443L298.264 339.451Z" fill="#EAFFCC"/>
</g>
<defs>
<clipPath id="clip0_298_5525">
<rect width="722.26" height="722.26" fill="white"/>
</clipPath>
</defs>
</svg>
