<svg width="41" height="40" viewBox="0 0 41 40" fill="none" xmlns="http://www.w3.org/2000/svg">
<g clip-path="url(#clip0_298_5129)">
<path fill-rule="evenodd" clip-rule="evenodd" d="M38.6214 12.5879C31.1139 26.5479 16.117 32.2234 2.18811 24.3643C1.72441 24.1026 1.1364 24.2662 0.874697 24.7242C0.612999 25.1903 0.776578 25.7791 1.24027 26.0408C16.1702 34.4724 32.2719 28.4616 40.3192 13.5039C40.5711 13.0377 40.3952 12.4488 39.9266 12.1953C39.458 11.95 38.8733 12.1218 38.6214 12.5879Z" fill="#333333"/>
<path d="M13.9096 18.3771C15.4604 18.3771 16.7176 17.12 16.7176 15.5692C16.7176 14.0184 15.4604 12.7612 13.9096 12.7612C12.3588 12.7612 11.1017 14.0184 11.1017 15.5692C11.1017 17.12 12.3588 18.3771 13.9096 18.3771Z" fill="#333333"/>
<path d="M25.5342 15.3902C27.0547 15.3902 28.2873 14.1576 28.2873 12.6371C28.2873 11.1166 27.0547 9.88403 25.5342 9.88403C24.0137 9.88403 22.7811 11.1166 22.7811 12.6371C22.7811 14.1576 24.0137 15.3902 25.5342 15.3902Z" fill="#333333"/>
</g>
<defs>
<clipPath id="clip0_298_5129">
<rect width="40" height="40" fill="white" transform="translate(0.75)"/>
</clipPath>
</defs>
</svg>
