<svg width="25" height="25" viewBox="0 0 25 25" fill="none" xmlns="http://www.w3.org/2000/svg">
<g clip-path="url(#clip0_353_7164)">
<path fill-rule="evenodd" clip-rule="evenodd" d="M22.7826 8.23456C18.3485 16.4797 9.49093 19.8318 1.26418 15.19C0.990308 15.0354 0.64301 15.132 0.488444 15.4025C0.333879 15.6778 0.430492 16.0256 0.704363 16.1802C9.52233 21.1601 19.0324 17.6099 23.7853 8.77553C23.9341 8.50021 23.8303 8.1524 23.5535 8.00266C23.2767 7.85775 22.9314 7.95924 22.7826 8.23456Z" fill="#333333"/>
<path d="M8.18725 11.6538C9.10319 11.6538 9.84572 10.9113 9.84572 9.99536C9.84572 9.07942 9.10319 8.33691 8.18725 8.33691C7.27131 8.33691 6.52881 9.07942 6.52881 9.99536C6.52881 10.9113 7.27131 11.6538 8.18725 11.6538Z" fill="#333333"/>
<path d="M15.053 9.89C15.9511 9.89 16.6791 9.16201 16.6791 8.26397C16.6791 7.36593 15.9511 6.63794 15.053 6.63794C14.155 6.63794 13.427 7.36593 13.427 8.26397C13.427 9.16201 14.155 9.89 15.053 9.89Z" fill="#333333"/>
</g>
<defs>
<clipPath id="clip0_353_7164">
<rect width="23.625" height="23.625" fill="white" transform="translate(0.414795 0.800049)"/>
</clipPath>
</defs>
</svg>
