<svg width="377" height="309" viewBox="0 0 377 309" fill="none" xmlns="http://www.w3.org/2000/svg">
<g clip-path="url(#clip0_376_12189)">
<path d="M326.214 216.32C323.939 214.045 320.25 214.045 317.975 216.32C311.642 222.653 299.599 234.695 293.257 241.028C290.982 243.303 290.982 246.993 293.257 249.268C295.532 251.543 299.221 251.543 301.496 249.268C307.944 242.82 319.767 230.997 326.214 224.55C328.489 222.275 328.489 218.586 326.214 216.311V216.32Z" fill="#EAFFCC"/>
<path d="M285.027 257.516C282.752 255.241 279.062 255.241 276.787 257.516C274.258 260.046 271.078 263.217 268.548 265.755C266.273 268.03 266.273 271.719 268.548 273.994C270.823 276.269 274.512 276.269 276.787 273.994C279.317 271.465 282.497 268.294 285.027 265.755C287.302 263.48 287.302 259.791 285.027 257.516Z" fill="#EAFFCC"/>
<path d="M260.317 282.225C258.042 279.95 254.353 279.95 252.078 282.225C247.475 286.828 240.202 294.101 235.608 298.703C233.333 300.978 233.333 304.668 235.608 306.943C237.883 309.218 241.573 309.218 243.848 306.943C248.45 302.349 255.723 295.067 260.326 290.473C262.601 288.198 262.601 284.509 260.326 282.234L260.317 282.225Z" fill="#EAFFCC"/>
<path d="M325.783 182.932L325.748 182.897C323.491 180.64 319.837 180.64 317.579 182.897C312.985 187.491 305.686 194.79 301.074 199.402C298.799 201.677 298.799 205.366 301.074 207.641C303.349 209.916 307.039 209.916 309.314 207.641C313.916 203.039 321.189 195.766 325.792 191.163C328.067 188.888 328.067 185.199 325.792 182.924L325.783 182.932Z" fill="#EAFFCC"/>
<path d="M292.826 215.889C290.551 213.614 286.862 213.614 284.587 215.889C272.606 227.871 238.911 261.565 226.93 273.546C224.655 275.822 224.655 279.511 226.93 281.786C229.205 284.061 232.894 284.061 235.169 281.786C247.15 269.805 280.845 236.11 292.826 224.129C295.101 221.854 295.101 218.164 292.826 215.889Z" fill="#EAFFCC"/>
<path d="M218.691 290.025C216.416 287.75 212.726 287.75 210.451 290.025C204.118 296.358 192.076 308.4 185.743 314.734C183.213 317.263 180.042 320.434 177.512 322.964C175.237 325.239 175.237 328.928 177.512 331.203C179.787 333.478 183.476 333.478 185.751 331.203C188.281 328.674 191.461 325.494 193.991 322.964C200.324 316.631 212.366 304.597 218.699 298.255C220.974 295.98 220.974 292.291 218.699 290.016L218.691 290.025Z" fill="#EAFFCC"/>
<path d="M384.31 192.041C382.035 189.766 378.345 189.766 376.07 192.041C364.203 203.908 330.465 237.638 318.405 249.707C316.129 251.982 316.129 255.671 318.405 257.946L318.44 257.982C320.697 260.239 324.351 260.239 326.609 257.982C338.449 246.132 372.451 212.139 384.301 200.28C386.576 198.005 386.576 194.316 384.301 192.041H384.31Z" fill="#EAFFCC"/>
<path d="M310.209 266.212L310.174 266.176C307.899 263.901 304.21 263.901 301.935 266.176C297.332 270.779 290.059 278.052 285.456 282.655C283.181 284.93 283.181 288.619 285.456 290.894C287.731 293.169 291.42 293.169 293.696 290.894C298.307 286.283 305.606 278.983 310.2 274.389C312.458 272.132 312.458 268.478 310.2 266.212H310.209Z" fill="#EAFFCC"/>
<path d="M277.218 299.134C274.943 296.858 271.254 296.858 268.979 299.134C260.757 307.346 244.076 324.036 236.022 332.082C233.747 334.357 233.747 338.046 236.022 340.321C238.297 342.596 241.986 342.596 244.261 340.321C252.333 332.249 269.137 315.445 277.218 307.364C279.493 305.089 279.493 301.4 277.218 299.125V299.134Z" fill="#EAFFCC"/>
<path d="M351.792 258.377L351.757 258.342C349.5 256.084 345.846 256.084 343.588 258.342C338.977 262.962 331.712 270.226 327.083 274.846C324.808 277.121 324.808 280.811 327.083 283.086C329.358 285.361 333.047 285.361 335.322 283.086C339.943 278.465 347.181 271.227 351.801 266.607C354.076 264.332 354.076 260.643 351.801 258.368L351.792 258.377Z" fill="#EAFFCC"/>
<path d="M318.844 291.334C316.569 289.059 312.88 289.059 310.614 291.334C308.084 293.863 304.904 297.043 302.374 299.573C300.099 301.848 300.099 305.537 302.374 307.812C304.649 310.087 308.339 310.087 310.614 307.812C313.143 305.282 316.323 302.111 318.853 299.573C321.128 297.298 321.128 293.609 318.853 291.334H318.844Z" fill="#EAFFCC"/>
<path d="M376.941 267.046C374.666 264.771 370.976 264.771 368.701 267.046C364.099 271.649 356.826 278.922 352.223 283.525C349.948 285.8 349.948 289.489 352.223 291.764C354.498 294.039 358.187 294.039 360.462 291.764C365.065 287.161 372.338 279.888 376.941 275.294C379.216 273.019 379.216 269.33 376.941 267.055V267.046Z" fill="#EAFFCC"/>
<path d="M343.992 300.003C341.717 297.728 338.028 297.728 335.753 300.003C322.7 313.065 282.936 352.82 269.857 365.908C267.582 368.183 267.582 371.873 269.857 374.148C272.132 376.423 275.821 376.423 278.096 374.148C291.228 361.016 330.869 321.374 343.992 308.251C346.267 305.976 346.267 302.287 343.992 300.012V300.003Z" fill="#EAFFCC"/>
<path d="M385.627 292.212L385.61 292.195C383.335 289.92 379.645 289.92 377.37 292.195C371.028 298.528 358.994 310.57 352.661 316.903C350.386 319.179 350.386 322.868 352.661 325.143L352.697 325.178C354.954 327.435 358.608 327.435 360.865 325.178C367.199 318.845 379.285 306.758 385.627 300.416C387.893 298.15 387.893 294.478 385.627 292.212Z" fill="#EAFFCC"/>
<path d="M383.915 158.689L383.88 158.654C381.605 156.379 377.916 156.379 375.641 158.654C371.029 163.256 363.818 170.477 359.197 175.097C359.189 175.106 359.171 175.123 359.162 175.132C352.829 181.465 340.786 193.508 334.453 199.841C332.178 202.116 332.178 205.805 334.453 208.08C336.728 210.355 340.418 210.355 342.693 208.08C349.026 201.747 361.068 189.704 367.402 183.371C372.031 178.742 379.295 171.478 383.906 166.866C386.164 164.609 386.164 160.955 383.906 158.697L383.915 158.689Z" fill="#EAFFCC"/>
<path d="M375.201 133.514C372.926 131.239 369.237 131.239 366.962 133.514C360.629 139.848 348.577 151.89 342.253 158.223C339.723 160.762 336.552 163.933 334.023 166.463C331.748 168.738 331.748 172.427 334.023 174.702C336.298 176.977 339.987 176.977 342.253 174.702C344.783 172.172 347.954 168.992 350.492 166.463C356.834 160.121 368.868 148.087 375.201 141.754C377.476 139.479 377.476 135.789 375.201 133.514Z" fill="#EAFFCC"/>
<path d="M450.646 159.523C448.371 157.248 444.681 157.248 442.406 159.523C429.389 172.532 409.818 192.111 392.98 208.95C385.083 216.847 367.928 234.001 360.031 241.898C357.756 244.173 357.756 247.862 360.031 250.137C362.306 252.412 365.996 252.412 368.271 250.137C376.167 242.241 393.322 225.086 401.219 217.189C413.139 205.269 437.918 180.49 450.646 167.762C452.921 165.487 452.921 161.798 450.646 159.523Z" fill="#EAFFCC"/>
</g>
<defs>
<clipPath id="clip0_376_12189">
<rect width="722.26" height="722.26" fill="white" transform="translate(-129)"/>
</clipPath>
</defs>
</svg>
