<svg width="37" height="40" viewBox="0 0 37 40" fill="none" xmlns="http://www.w3.org/2000/svg">
<path fill-rule="evenodd" clip-rule="evenodd" d="M12.2156 37.3277C8.7295 36.3494 5.07961 35.8559 1.53899 35.4038C0.776398 35.309 0.0683801 35.8379 0.013909 36.5831C-0.0950332 37.3288 0.449997 38.0108 1.15812 38.1056C4.5898 38.5408 8.1301 39.0065 11.4528 39.9483C12.161 40.1526 12.9239 39.7321 13.1418 39.0087C13.3596 38.2859 12.9238 37.5325 12.2156 37.3277Z" fill="#333333"/>
<path fill-rule="evenodd" clip-rule="evenodd" d="M22.7826 23.458C17.1721 17.7325 10.8534 12.744 5.35183 6.86498C4.86159 6.31591 3.99005 6.28649 3.44534 6.79907C2.90063 7.31219 2.84637 8.17501 3.39108 8.72407C8.89266 14.62 15.2113 19.6248 20.8218 25.3672C21.3665 25.9032 22.2379 25.9108 22.7826 25.3835C23.2728 24.8568 23.3273 23.994 22.7826 23.458Z" fill="#333333"/>
<path fill-rule="evenodd" clip-rule="evenodd" d="M33.2962 1.43573C33.4596 4.71271 33.6227 7.98969 33.7862 11.2672C33.7862 12.0178 34.4401 12.5974 35.2027 12.5609C35.9653 12.5239 36.5097 11.8849 36.5097 11.1338C36.3463 7.85133 36.1832 4.56945 36.0198 1.28756C35.9653 0.536953 35.3116 -0.0388069 34.549 0.00204639C33.8408 0.0428997 33.2418 0.68566 33.2962 1.43573Z" fill="#333333"/>
</svg>
