<svg width="29" height="25" viewBox="0 0 29 25" fill="none" xmlns="http://www.w3.org/2000/svg">
<g filter="url(#filter0_i_370_6419)">
<path d="M16.6221 23.5046L27.2371 18.0591C27.7451 17.805 27.9995 17.3158 28.0001 16.8263V16.1362H1.04675V16.8263C1.04738 17.3158 1.30171 17.805 1.80974 18.0591L12.4247 23.5046C13.7459 24.1652 15.301 24.1652 16.6221 23.5046Z" fill="url(#paint0_linear_370_6419)"/>
</g>
<g filter="url(#filter1_i_370_6419)">
<path d="M12.4247 9.59419C13.7459 8.93361 15.301 8.93361 16.6221 9.59419L27.2371 14.9017C28.2544 15.4103 28.2544 16.8621 27.2371 17.3707L16.6221 22.6782C15.301 23.3388 13.7459 23.3388 12.4247 22.6782L1.80974 17.3707C0.792426 16.8621 0.792424 15.4103 1.80974 14.9017L12.4247 9.59419Z" fill="url(#paint1_radial_370_6419)"/>
</g>
<g filter="url(#filter2_f_370_6419)">
<path d="M16.6221 22.6782L27.2371 17.3707C27.7002 17.1392 27.9524 16.7123 27.9939 16.2678C27.6898 16.9639 27.5637 17.006 27.1791 17.2348L16.5892 22.4742C16.2877 22.6093 15.4682 22.9603 14.4706 22.9603C13.473 22.9603 12.7107 22.6093 12.4444 22.4742C9.04262 20.77 2.1374 17.399 1.80973 17.2244C1.48206 17.0498 1.19307 16.6562 1.08954 16.4813C1.18147 16.8452 1.42154 17.1767 1.80973 17.3708L12.4247 22.6782C13.7459 23.3388 15.301 23.3388 16.6221 22.6782Z" fill="url(#paint2_linear_370_6419)"/>
</g>
<g filter="url(#filter3_bi_370_6419)">
<path d="M12.4247 5.04482C13.7459 4.38423 15.301 4.38423 16.6221 5.04481L27.2371 10.3523C28.2544 10.861 28.2544 12.3127 27.2371 12.8214L16.6221 18.1289C15.301 18.7894 13.7459 18.7894 12.4247 18.1289L1.80974 12.8214C0.792426 12.3127 0.792424 10.861 1.80974 10.3523L12.4247 5.04482Z" fill="#E4E8F3" fill-opacity="0.4"/>
</g>
<g filter="url(#filter4_bi_370_6419)">
<path d="M1.04675 11.5868V12.277C1.04738 12.7665 1.30171 13.2557 1.80974 13.5097L12.4247 18.9552C13.7459 19.6158 15.301 19.6158 16.6221 18.9552L27.2371 13.5097C27.7451 13.2557 27.9995 12.7665 28.0001 12.277V11.5898C27.999 12.0789 27.7447 12.5676 27.2371 12.8214L16.6221 18.1289C15.301 18.7894 13.7459 18.7894 12.4247 18.1289L1.80974 12.8214C1.30108 12.567 1.04675 12.0769 1.04675 11.5868Z" fill="#E4E8F3" fill-opacity="0.4"/>
</g>
<g filter="url(#filter5_f_370_6419)">
<path d="M16.6221 18.1289L27.2371 12.8214C27.7002 12.5898 27.9524 12.1629 27.9939 11.7184C27.6898 12.4146 27.5637 12.4566 27.1791 12.6854L16.5892 17.9248C16.2877 18.0599 15.4682 18.411 14.4706 18.411C13.473 18.411 12.7107 18.0599 12.4444 17.9248C9.04262 16.2206 2.1374 12.8496 1.80973 12.675C1.48206 12.5004 1.19307 12.1069 1.08954 11.9319C1.18147 12.2958 1.42154 12.6273 1.80973 12.8214L12.4247 18.1289C13.7459 18.7894 15.301 18.7894 16.6221 18.1289Z" fill="url(#paint3_linear_370_6419)"/>
</g>
<g filter="url(#filter6_bi_370_6419)">
<path d="M12.4247 0.495438C13.7459 -0.165145 15.301 -0.165146 16.6221 0.495437L27.2371 5.80292C28.2544 6.31158 28.2544 7.76333 27.2371 8.27199L16.6221 13.5795C15.301 14.2401 13.7459 14.2401 12.4247 13.5795L1.80974 8.27199C0.792426 7.76334 0.792424 6.31158 1.80974 5.80292L12.4247 0.495438Z" fill="#E4E8F3" fill-opacity="0.4"/>
</g>
<g filter="url(#filter7_bi_370_6419)">
<path d="M1.04675 7.03746V7.72759C1.04738 8.21708 1.30171 8.70629 1.80974 8.9603L12.4247 14.4058C13.7459 15.0664 15.301 15.0664 16.6221 14.4058L27.2371 8.9603C27.7451 8.70629 27.9995 8.21708 28.0001 7.72759V7.04046C27.999 7.52956 27.7447 8.01818 27.2371 8.27199L16.6221 13.5795C15.301 14.2401 13.7459 14.2401 12.4247 13.5795L1.80974 8.27199C1.30108 8.01767 1.04675 7.52756 1.04675 7.03746Z" fill="#E4E8F3" fill-opacity="0.4"/>
</g>
<g filter="url(#filter8_f_370_6419)">
<path d="M16.6221 13.5795L27.2371 8.27199C27.7002 8.04046 27.9524 7.61352 27.9939 7.16907C27.6898 7.86519 27.5637 7.90723 27.1791 8.13602L16.5892 13.3754C16.2877 13.5105 15.4682 13.8616 14.4706 13.8616C13.473 13.8616 12.7107 13.5105 12.4444 13.3754C9.04262 11.6713 2.1374 8.3002 1.80973 8.12563C1.48206 7.95105 1.19307 7.55749 1.08954 7.38253C1.18147 7.74647 1.42154 8.0779 1.80973 8.272L12.4247 13.5795C13.7459 14.2401 15.301 14.2401 16.6221 13.5795Z" fill="url(#paint4_linear_370_6419)"/>
</g>
<defs>
<filter id="filter0_i_370_6419" x="1.04675" y="15.6362" width="26.9533" height="8.36379" filterUnits="userSpaceOnUse" color-interpolation-filters="sRGB">
<feFlood flood-opacity="0" result="BackgroundImageFix"/>
<feBlend mode="normal" in="SourceGraphic" in2="BackgroundImageFix" result="shape"/>
<feColorMatrix in="SourceAlpha" type="matrix" values="0 0 0 0 0 0 0 0 0 0 0 0 0 0 0 0 0 0 127 0" result="hardAlpha"/>
<feOffset dy="-0.5"/>
<feGaussianBlur stdDeviation="0.5"/>
<feComposite in2="hardAlpha" operator="arithmetic" k2="-1" k3="1"/>
<feColorMatrix type="matrix" values="0 0 0 0 0 0 0 0 0 0 0 0 0 0 0 0 0 0 0.15 0"/>
<feBlend mode="darken" in2="shape" result="effect1_innerShadow_370_6419"/>
</filter>
<filter id="filter1_i_370_6419" x="1.04675" y="9.09875" width="26.9533" height="14.5749" filterUnits="userSpaceOnUse" color-interpolation-filters="sRGB">
<feFlood flood-opacity="0" result="BackgroundImageFix"/>
<feBlend mode="normal" in="SourceGraphic" in2="BackgroundImageFix" result="shape"/>
<feColorMatrix in="SourceAlpha" type="matrix" values="0 0 0 0 0 0 0 0 0 0 0 0 0 0 0 0 0 0 127 0" result="hardAlpha"/>
<feOffset dy="0.5"/>
<feGaussianBlur stdDeviation="0.5"/>
<feComposite in2="hardAlpha" operator="arithmetic" k2="-1" k3="1"/>
<feColorMatrix type="matrix" values="0 0 0 0 0 0 0 0 0 0 0 0 0 0 0 0 0 0 0.1 0"/>
<feBlend mode="darken" in2="shape" result="effect1_innerShadow_370_6419"/>
</filter>
<filter id="filter2_f_370_6419" x="0.0895386" y="15.2678" width="28.9044" height="8.90585" filterUnits="userSpaceOnUse" color-interpolation-filters="sRGB">
<feFlood flood-opacity="0" result="BackgroundImageFix"/>
<feBlend mode="normal" in="SourceGraphic" in2="BackgroundImageFix" result="shape"/>
<feGaussianBlur stdDeviation="0.5" result="effect1_foregroundBlur_370_6419"/>
</filter>
<filter id="filter3_bi_370_6419" x="-18.9532" y="-15.4506" width="66.9533" height="54.0749" filterUnits="userSpaceOnUse" color-interpolation-filters="sRGB">
<feFlood flood-opacity="0" result="BackgroundImageFix"/>
<feGaussianBlur in="BackgroundImageFix" stdDeviation="10"/>
<feComposite in2="SourceAlpha" operator="in" result="effect1_backgroundBlur_370_6419"/>
<feBlend mode="normal" in="SourceGraphic" in2="effect1_backgroundBlur_370_6419" result="shape"/>
<feColorMatrix in="SourceAlpha" type="matrix" values="0 0 0 0 0 0 0 0 0 0 0 0 0 0 0 0 0 0 127 0" result="hardAlpha"/>
<feOffset dy="0.5"/>
<feGaussianBlur stdDeviation="0.5"/>
<feComposite in2="hardAlpha" operator="arithmetic" k2="-1" k3="1"/>
<feColorMatrix type="matrix" values="0 0 0 0 0.342674 0 0 0 0 0.352133 0 0 0 0 0.579167 0 0 0 0.1 0"/>
<feBlend mode="darken" in2="shape" result="effect2_innerShadow_370_6419"/>
</filter>
<filter id="filter4_bi_370_6419" x="-18.9532" y="-8.41316" width="66.9533" height="47.8638" filterUnits="userSpaceOnUse" color-interpolation-filters="sRGB">
<feFlood flood-opacity="0" result="BackgroundImageFix"/>
<feGaussianBlur in="BackgroundImageFix" stdDeviation="10"/>
<feComposite in2="SourceAlpha" operator="in" result="effect1_backgroundBlur_370_6419"/>
<feBlend mode="normal" in="SourceGraphic" in2="effect1_backgroundBlur_370_6419" result="shape"/>
<feColorMatrix in="SourceAlpha" type="matrix" values="0 0 0 0 0 0 0 0 0 0 0 0 0 0 0 0 0 0 127 0" result="hardAlpha"/>
<feOffset dy="-0.5"/>
<feGaussianBlur stdDeviation="0.5"/>
<feComposite in2="hardAlpha" operator="arithmetic" k2="-1" k3="1"/>
<feColorMatrix type="matrix" values="0 0 0 0 0.341176 0 0 0 0 0.352941 0 0 0 0 0.580392 0 0 0 0.25 0"/>
<feBlend mode="darken" in2="shape" result="effect2_innerShadow_370_6419"/>
</filter>
<filter id="filter5_f_370_6419" x="0.0895386" y="10.7184" width="28.9044" height="8.90585" filterUnits="userSpaceOnUse" color-interpolation-filters="sRGB">
<feFlood flood-opacity="0" result="BackgroundImageFix"/>
<feBlend mode="normal" in="SourceGraphic" in2="BackgroundImageFix" result="shape"/>
<feGaussianBlur stdDeviation="0.5" result="effect1_foregroundBlur_370_6419"/>
</filter>
<filter id="filter6_bi_370_6419" x="-18.9532" y="-20" width="66.9533" height="54.0749" filterUnits="userSpaceOnUse" color-interpolation-filters="sRGB">
<feFlood flood-opacity="0" result="BackgroundImageFix"/>
<feGaussianBlur in="BackgroundImageFix" stdDeviation="10"/>
<feComposite in2="SourceAlpha" operator="in" result="effect1_backgroundBlur_370_6419"/>
<feBlend mode="normal" in="SourceGraphic" in2="effect1_backgroundBlur_370_6419" result="shape"/>
<feColorMatrix in="SourceAlpha" type="matrix" values="0 0 0 0 0 0 0 0 0 0 0 0 0 0 0 0 0 0 127 0" result="hardAlpha"/>
<feOffset dy="0.5"/>
<feGaussianBlur stdDeviation="0.5"/>
<feComposite in2="hardAlpha" operator="arithmetic" k2="-1" k3="1"/>
<feColorMatrix type="matrix" values="0 0 0 0 0.342674 0 0 0 0 0.352133 0 0 0 0 0.579167 0 0 0 0.1 0"/>
<feBlend mode="darken" in2="shape" result="effect2_innerShadow_370_6419"/>
</filter>
<filter id="filter7_bi_370_6419" x="-18.9532" y="-12.9625" width="66.9533" height="47.8638" filterUnits="userSpaceOnUse" color-interpolation-filters="sRGB">
<feFlood flood-opacity="0" result="BackgroundImageFix"/>
<feGaussianBlur in="BackgroundImageFix" stdDeviation="10"/>
<feComposite in2="SourceAlpha" operator="in" result="effect1_backgroundBlur_370_6419"/>
<feBlend mode="normal" in="SourceGraphic" in2="effect1_backgroundBlur_370_6419" result="shape"/>
<feColorMatrix in="SourceAlpha" type="matrix" values="0 0 0 0 0 0 0 0 0 0 0 0 0 0 0 0 0 0 127 0" result="hardAlpha"/>
<feOffset dy="-0.5"/>
<feGaussianBlur stdDeviation="0.5"/>
<feComposite in2="hardAlpha" operator="arithmetic" k2="-1" k3="1"/>
<feColorMatrix type="matrix" values="0 0 0 0 0.341176 0 0 0 0 0.352941 0 0 0 0 0.580392 0 0 0 0.25 0"/>
<feBlend mode="darken" in2="shape" result="effect2_innerShadow_370_6419"/>
</filter>
<filter id="filter8_f_370_6419" x="0.0895386" y="6.16907" width="28.9044" height="8.90585" filterUnits="userSpaceOnUse" color-interpolation-filters="sRGB">
<feFlood flood-opacity="0" result="BackgroundImageFix"/>
<feBlend mode="normal" in="SourceGraphic" in2="BackgroundImageFix" result="shape"/>
<feGaussianBlur stdDeviation="0.5" result="effect1_foregroundBlur_370_6419"/>
</filter>
<linearGradient id="paint0_linear_370_6419" x1="1.04675" y1="20.0681" x2="28.0001" y2="20.0681" gradientUnits="userSpaceOnUse">
<stop stop-color="#65DD91"/>
<stop offset="0.48" stop-color="#04773B"/>
<stop offset="1" stop-color="#AFFFCC"/>
</linearGradient>
<radialGradient id="paint1_radial_370_6419" cx="0" cy="0" r="1" gradientUnits="userSpaceOnUse" gradientTransform="translate(5.20674 16.1362) scale(17.3911)">
<stop stop-color="#65DD91"/>
<stop offset="1" stop-color="#CDFFDF"/>
</radialGradient>
<linearGradient id="paint2_linear_370_6419" x1="1.08954" y1="16.2678" x2="27.994" y2="16.2678" gradientUnits="userSpaceOnUse">
<stop stop-color="white" stop-opacity="0.24"/>
<stop offset="0.130208" stop-color="white" stop-opacity="0.865636"/>
<stop offset="0.489583" stop-color="white" stop-opacity="0.494792"/>
<stop offset="1" stop-color="white" stop-opacity="0"/>
</linearGradient>
<linearGradient id="paint3_linear_370_6419" x1="1.08954" y1="11.7184" x2="27.994" y2="11.7184" gradientUnits="userSpaceOnUse">
<stop stop-color="white" stop-opacity="0.24"/>
<stop offset="0.130208" stop-color="white" stop-opacity="0.865636"/>
<stop offset="0.489583" stop-color="white" stop-opacity="0.494792"/>
<stop offset="1" stop-color="white" stop-opacity="0"/>
</linearGradient>
<linearGradient id="paint4_linear_370_6419" x1="1.08954" y1="7.16907" x2="27.994" y2="7.16907" gradientUnits="userSpaceOnUse">
<stop stop-color="white" stop-opacity="0.24"/>
<stop offset="0.130208" stop-color="white" stop-opacity="0.865636"/>
<stop offset="0.489583" stop-color="white" stop-opacity="0.494792"/>
<stop offset="1" stop-color="white" stop-opacity="0"/>
</linearGradient>
</defs>
</svg>
