<svg width="29" height="25" viewBox="0 0 29 25" fill="none" xmlns="http://www.w3.org/2000/svg">
<g filter="url(#filter0_i_376_12123)">
<path d="M16.622 23.5046L27.237 18.0591C27.745 17.8051 27.9993 17.3159 28 16.8264V16.1362H1.04663V16.8264C1.04726 17.3159 1.30159 17.8051 1.80961 18.0591L12.4246 23.5046C13.7458 24.1652 15.3008 24.1652 16.622 23.5046Z" fill="url(#paint0_linear_376_12123)"/>
</g>
<g filter="url(#filter1_i_376_12123)">
<path d="M12.4246 9.59419C13.7458 8.93361 15.3008 8.93361 16.622 9.59419L27.237 14.9017C28.2543 15.4103 28.2543 16.8621 27.237 17.3707L16.622 22.6782C15.3008 23.3388 13.7458 23.3388 12.4246 22.6782L1.80961 17.3707C0.792304 16.8621 0.792302 15.4103 1.80961 14.9017L12.4246 9.59419Z" fill="url(#paint1_radial_376_12123)"/>
</g>
<g filter="url(#filter2_f_376_12123)">
<path d="M16.6221 22.6782L27.237 17.3707C27.7001 17.1392 27.9524 16.7123 27.9939 16.2678C27.6897 16.9639 27.5636 17.006 27.179 17.2348L16.5892 22.4742C16.2877 22.6093 15.4681 22.9603 14.4705 22.9603C13.473 22.9603 12.7107 22.6093 12.4444 22.4742C9.04256 20.77 2.13734 17.399 1.80967 17.2244C1.482 17.0498 1.19301 16.6562 1.08948 16.4813C1.18141 16.8452 1.42147 17.1767 1.80967 17.3708L12.4246 22.6782C13.7458 23.3388 15.3009 23.3388 16.6221 22.6782Z" fill="url(#paint2_linear_376_12123)"/>
</g>
<g filter="url(#filter3_bi_376_12123)">
<path d="M12.4246 5.04482C13.7458 4.38423 15.3008 4.38423 16.622 5.04481L27.237 10.3523C28.2543 10.861 28.2543 12.3127 27.237 12.8214L16.622 18.1289C15.3008 18.7894 13.7458 18.7894 12.4246 18.1289L1.80961 12.8214C0.792304 12.3127 0.792302 10.861 1.80961 10.3523L12.4246 5.04482Z" fill="#E4E8F3" fill-opacity="0.4"/>
</g>
<g filter="url(#filter4_bi_376_12123)">
<path d="M1.04663 11.5869V12.277C1.04726 12.7665 1.30159 13.2557 1.80961 13.5097L12.4246 18.9552C13.7458 19.6158 15.3008 19.6158 16.622 18.9552L27.237 13.5097C27.745 13.2557 27.9993 12.7665 28 12.277V11.5898C27.9989 12.079 27.7446 12.5676 27.237 12.8214L16.622 18.1289C15.3008 18.7895 13.7458 18.7895 12.4246 18.1289L1.80961 12.8214C1.30096 12.5671 1.04663 12.077 1.04663 11.5869Z" fill="#E4E8F3" fill-opacity="0.4"/>
</g>
<g filter="url(#filter5_f_376_12123)">
<path d="M16.6221 18.1289L27.237 12.8214C27.7001 12.5898 27.9524 12.1629 27.9939 11.7184C27.6897 12.4146 27.5636 12.4566 27.179 12.6854L16.5892 17.9248C16.2877 18.0599 15.4681 18.411 14.4705 18.411C13.473 18.411 12.7107 18.0599 12.4444 17.9248C9.04256 16.2206 2.13734 12.8496 1.80967 12.675C1.482 12.5004 1.19301 12.1069 1.08948 11.9319C1.18141 12.2958 1.42147 12.6273 1.80967 12.8214L12.4246 18.1289C13.7458 18.7894 15.3009 18.7894 16.6221 18.1289Z" fill="url(#paint3_linear_376_12123)"/>
</g>
<g filter="url(#filter6_bi_376_12123)">
<path d="M12.4246 0.495438C13.7458 -0.165145 15.3008 -0.165146 16.622 0.495437L27.237 5.80292C28.2543 6.31158 28.2543 7.76333 27.237 8.27199L16.622 13.5795C15.3008 14.2401 13.7458 14.2401 12.4246 13.5795L1.80961 8.27199C0.792304 7.76334 0.792302 6.31158 1.80961 5.80292L12.4246 0.495438Z" fill="#E4E8F3" fill-opacity="0.4"/>
</g>
<g filter="url(#filter7_bi_376_12123)">
<path d="M1.04663 7.03748V7.7276C1.04726 8.2171 1.30159 8.7063 1.80961 8.96032L12.4246 14.4058C13.7458 15.0664 15.3008 15.0664 16.622 14.4058L27.237 8.96032C27.745 8.7063 27.9993 8.2171 28 7.7276V7.04047C27.9989 7.52957 27.7446 8.0182 27.237 8.27201L16.622 13.5795C15.3008 14.2401 13.7458 14.2401 12.4246 13.5795L1.80961 8.27201C1.30096 8.01768 1.04663 7.52758 1.04663 7.03748Z" fill="#E4E8F3" fill-opacity="0.4"/>
</g>
<g filter="url(#filter8_f_376_12123)">
<path d="M16.6221 13.5795L27.237 8.27199C27.7001 8.04046 27.9524 7.61352 27.9939 7.16907C27.6897 7.86519 27.5636 7.90723 27.179 8.13602L16.5892 13.3754C16.2877 13.5105 15.4681 13.8616 14.4705 13.8616C13.473 13.8616 12.7107 13.5105 12.4444 13.3754C9.04256 11.6713 2.13734 8.3002 1.80967 8.12563C1.482 7.95105 1.19301 7.55749 1.08948 7.38253C1.18141 7.74647 1.42147 8.0779 1.80967 8.272L12.4246 13.5795C13.7458 14.2401 15.3009 14.2401 16.6221 13.5795Z" fill="url(#paint4_linear_376_12123)"/>
</g>
<defs>
<filter id="filter0_i_376_12123" x="1.04663" y="15.6362" width="26.9534" height="8.36377" filterUnits="userSpaceOnUse" color-interpolation-filters="sRGB">
<feFlood flood-opacity="0" result="BackgroundImageFix"/>
<feBlend mode="normal" in="SourceGraphic" in2="BackgroundImageFix" result="shape"/>
<feColorMatrix in="SourceAlpha" type="matrix" values="0 0 0 0 0 0 0 0 0 0 0 0 0 0 0 0 0 0 127 0" result="hardAlpha"/>
<feOffset dy="-0.5"/>
<feGaussianBlur stdDeviation="0.5"/>
<feComposite in2="hardAlpha" operator="arithmetic" k2="-1" k3="1"/>
<feColorMatrix type="matrix" values="0 0 0 0 0 0 0 0 0 0 0 0 0 0 0 0 0 0 0.15 0"/>
<feBlend mode="darken" in2="shape" result="effect1_innerShadow_376_12123"/>
</filter>
<filter id="filter1_i_376_12123" x="1.04663" y="9.09875" width="26.9534" height="14.5749" filterUnits="userSpaceOnUse" color-interpolation-filters="sRGB">
<feFlood flood-opacity="0" result="BackgroundImageFix"/>
<feBlend mode="normal" in="SourceGraphic" in2="BackgroundImageFix" result="shape"/>
<feColorMatrix in="SourceAlpha" type="matrix" values="0 0 0 0 0 0 0 0 0 0 0 0 0 0 0 0 0 0 127 0" result="hardAlpha"/>
<feOffset dy="0.5"/>
<feGaussianBlur stdDeviation="0.5"/>
<feComposite in2="hardAlpha" operator="arithmetic" k2="-1" k3="1"/>
<feColorMatrix type="matrix" values="0 0 0 0 0 0 0 0 0 0 0 0 0 0 0 0 0 0 0.1 0"/>
<feBlend mode="darken" in2="shape" result="effect1_innerShadow_376_12123"/>
</filter>
<filter id="filter2_f_376_12123" x="0.0894775" y="15.2678" width="28.9044" height="8.90582" filterUnits="userSpaceOnUse" color-interpolation-filters="sRGB">
<feFlood flood-opacity="0" result="BackgroundImageFix"/>
<feBlend mode="normal" in="SourceGraphic" in2="BackgroundImageFix" result="shape"/>
<feGaussianBlur stdDeviation="0.5" result="effect1_foregroundBlur_376_12123"/>
</filter>
<filter id="filter3_bi_376_12123" x="-18.9534" y="-15.4506" width="66.9534" height="54.0749" filterUnits="userSpaceOnUse" color-interpolation-filters="sRGB">
<feFlood flood-opacity="0" result="BackgroundImageFix"/>
<feGaussianBlur in="BackgroundImageFix" stdDeviation="10"/>
<feComposite in2="SourceAlpha" operator="in" result="effect1_backgroundBlur_376_12123"/>
<feBlend mode="normal" in="SourceGraphic" in2="effect1_backgroundBlur_376_12123" result="shape"/>
<feColorMatrix in="SourceAlpha" type="matrix" values="0 0 0 0 0 0 0 0 0 0 0 0 0 0 0 0 0 0 127 0" result="hardAlpha"/>
<feOffset dy="0.5"/>
<feGaussianBlur stdDeviation="0.5"/>
<feComposite in2="hardAlpha" operator="arithmetic" k2="-1" k3="1"/>
<feColorMatrix type="matrix" values="0 0 0 0 0.342674 0 0 0 0 0.352133 0 0 0 0 0.579167 0 0 0 0.1 0"/>
<feBlend mode="darken" in2="shape" result="effect2_innerShadow_376_12123"/>
</filter>
<filter id="filter4_bi_376_12123" x="-18.9534" y="-8.41315" width="66.9534" height="47.8638" filterUnits="userSpaceOnUse" color-interpolation-filters="sRGB">
<feFlood flood-opacity="0" result="BackgroundImageFix"/>
<feGaussianBlur in="BackgroundImageFix" stdDeviation="10"/>
<feComposite in2="SourceAlpha" operator="in" result="effect1_backgroundBlur_376_12123"/>
<feBlend mode="normal" in="SourceGraphic" in2="effect1_backgroundBlur_376_12123" result="shape"/>
<feColorMatrix in="SourceAlpha" type="matrix" values="0 0 0 0 0 0 0 0 0 0 0 0 0 0 0 0 0 0 127 0" result="hardAlpha"/>
<feOffset dy="-0.5"/>
<feGaussianBlur stdDeviation="0.5"/>
<feComposite in2="hardAlpha" operator="arithmetic" k2="-1" k3="1"/>
<feColorMatrix type="matrix" values="0 0 0 0 0.341176 0 0 0 0 0.352941 0 0 0 0 0.580392 0 0 0 0.25 0"/>
<feBlend mode="darken" in2="shape" result="effect2_innerShadow_376_12123"/>
</filter>
<filter id="filter5_f_376_12123" x="0.0894775" y="10.7184" width="28.9044" height="8.90582" filterUnits="userSpaceOnUse" color-interpolation-filters="sRGB">
<feFlood flood-opacity="0" result="BackgroundImageFix"/>
<feBlend mode="normal" in="SourceGraphic" in2="BackgroundImageFix" result="shape"/>
<feGaussianBlur stdDeviation="0.5" result="effect1_foregroundBlur_376_12123"/>
</filter>
<filter id="filter6_bi_376_12123" x="-18.9534" y="-20" width="66.9534" height="54.0749" filterUnits="userSpaceOnUse" color-interpolation-filters="sRGB">
<feFlood flood-opacity="0" result="BackgroundImageFix"/>
<feGaussianBlur in="BackgroundImageFix" stdDeviation="10"/>
<feComposite in2="SourceAlpha" operator="in" result="effect1_backgroundBlur_376_12123"/>
<feBlend mode="normal" in="SourceGraphic" in2="effect1_backgroundBlur_376_12123" result="shape"/>
<feColorMatrix in="SourceAlpha" type="matrix" values="0 0 0 0 0 0 0 0 0 0 0 0 0 0 0 0 0 0 127 0" result="hardAlpha"/>
<feOffset dy="0.5"/>
<feGaussianBlur stdDeviation="0.5"/>
<feComposite in2="hardAlpha" operator="arithmetic" k2="-1" k3="1"/>
<feColorMatrix type="matrix" values="0 0 0 0 0.342674 0 0 0 0 0.352133 0 0 0 0 0.579167 0 0 0 0.1 0"/>
<feBlend mode="darken" in2="shape" result="effect2_innerShadow_376_12123"/>
</filter>
<filter id="filter7_bi_376_12123" x="-18.9534" y="-12.9625" width="66.9534" height="47.8638" filterUnits="userSpaceOnUse" color-interpolation-filters="sRGB">
<feFlood flood-opacity="0" result="BackgroundImageFix"/>
<feGaussianBlur in="BackgroundImageFix" stdDeviation="10"/>
<feComposite in2="SourceAlpha" operator="in" result="effect1_backgroundBlur_376_12123"/>
<feBlend mode="normal" in="SourceGraphic" in2="effect1_backgroundBlur_376_12123" result="shape"/>
<feColorMatrix in="SourceAlpha" type="matrix" values="0 0 0 0 0 0 0 0 0 0 0 0 0 0 0 0 0 0 127 0" result="hardAlpha"/>
<feOffset dy="-0.5"/>
<feGaussianBlur stdDeviation="0.5"/>
<feComposite in2="hardAlpha" operator="arithmetic" k2="-1" k3="1"/>
<feColorMatrix type="matrix" values="0 0 0 0 0.341176 0 0 0 0 0.352941 0 0 0 0 0.580392 0 0 0 0.25 0"/>
<feBlend mode="darken" in2="shape" result="effect2_innerShadow_376_12123"/>
</filter>
<filter id="filter8_f_376_12123" x="0.0894775" y="6.16907" width="28.9044" height="8.90582" filterUnits="userSpaceOnUse" color-interpolation-filters="sRGB">
<feFlood flood-opacity="0" result="BackgroundImageFix"/>
<feBlend mode="normal" in="SourceGraphic" in2="BackgroundImageFix" result="shape"/>
<feGaussianBlur stdDeviation="0.5" result="effect1_foregroundBlur_376_12123"/>
</filter>
<linearGradient id="paint0_linear_376_12123" x1="1.04663" y1="20.0681" x2="27.9999" y2="20.0681" gradientUnits="userSpaceOnUse">
<stop stop-color="#65DD91"/>
<stop offset="0.48" stop-color="#04773B"/>
<stop offset="1" stop-color="#AFFFCC"/>
</linearGradient>
<radialGradient id="paint1_radial_376_12123" cx="0" cy="0" r="1" gradientUnits="userSpaceOnUse" gradientTransform="translate(5.20662 16.1362) scale(17.3911)">
<stop stop-color="#65DD91"/>
<stop offset="1" stop-color="#CDFFDF"/>
</radialGradient>
<linearGradient id="paint2_linear_376_12123" x1="1.08948" y1="16.2678" x2="27.9939" y2="16.2678" gradientUnits="userSpaceOnUse">
<stop stop-color="white" stop-opacity="0.24"/>
<stop offset="0.130208" stop-color="white" stop-opacity="0.865636"/>
<stop offset="0.489583" stop-color="white" stop-opacity="0.494792"/>
<stop offset="1" stop-color="white" stop-opacity="0"/>
</linearGradient>
<linearGradient id="paint3_linear_376_12123" x1="1.08948" y1="11.7184" x2="27.9939" y2="11.7184" gradientUnits="userSpaceOnUse">
<stop stop-color="white" stop-opacity="0.24"/>
<stop offset="0.130208" stop-color="white" stop-opacity="0.865636"/>
<stop offset="0.489583" stop-color="white" stop-opacity="0.494792"/>
<stop offset="1" stop-color="white" stop-opacity="0"/>
</linearGradient>
<linearGradient id="paint4_linear_376_12123" x1="1.08948" y1="7.16907" x2="27.9939" y2="7.16907" gradientUnits="userSpaceOnUse">
<stop stop-color="white" stop-opacity="0.24"/>
<stop offset="0.130208" stop-color="white" stop-opacity="0.865636"/>
<stop offset="0.489583" stop-color="white" stop-opacity="0.494792"/>
<stop offset="1" stop-color="white" stop-opacity="0"/>
</linearGradient>
</defs>
</svg>
