<svg width="30" height="25" viewBox="0 0 30 25" fill="none" xmlns="http://www.w3.org/2000/svg">
<g filter="url(#filter0_i_370_6377)">
<path d="M17.122 23.5046L27.737 18.0591C28.245 17.8051 28.4993 17.3159 28.5 16.8264V16.1362H1.54663V16.8264C1.54726 17.3159 1.80159 17.8051 2.30961 18.0591L12.9246 23.5046C14.2458 24.1652 15.8008 24.1652 17.122 23.5046Z" fill="url(#paint0_linear_370_6377)"/>
</g>
<g filter="url(#filter1_i_370_6377)">
<path d="M12.9246 9.59419C14.2458 8.93361 15.8008 8.93361 17.122 9.59419L27.737 14.9017C28.7543 15.4103 28.7543 16.8621 27.737 17.3707L17.122 22.6782C15.8008 23.3388 14.2458 23.3388 12.9246 22.6782L2.30961 17.3707C1.2923 16.8621 1.2923 15.4103 2.30961 14.9017L12.9246 9.59419Z" fill="url(#paint1_radial_370_6377)"/>
</g>
<g filter="url(#filter2_f_370_6377)">
<path d="M17.1221 22.6782L27.737 17.3707C28.2001 17.1392 28.4524 16.7123 28.4939 16.2678C28.1897 16.9639 28.0636 17.006 27.679 17.2348L17.0892 22.4742C16.7877 22.6093 15.9681 22.9603 14.9705 22.9603C13.973 22.9603 13.2107 22.6093 12.9444 22.4742C9.54256 20.77 2.63734 17.399 2.30967 17.2244C1.982 17.0498 1.69301 16.6562 1.58948 16.4813C1.68141 16.8452 1.92147 17.1767 2.30967 17.3708L12.9246 22.6782C14.2458 23.3388 15.8009 23.3388 17.1221 22.6782Z" fill="url(#paint2_linear_370_6377)"/>
</g>
<g filter="url(#filter3_bi_370_6377)">
<path d="M12.9246 5.04482C14.2458 4.38423 15.8008 4.38423 17.122 5.04481L27.737 10.3523C28.7543 10.861 28.7543 12.3127 27.737 12.8214L17.122 18.1289C15.8008 18.7894 14.2458 18.7894 12.9246 18.1289L2.30961 12.8214C1.2923 12.3127 1.2923 10.861 2.30961 10.3523L12.9246 5.04482Z" fill="#E4E8F3" fill-opacity="0.4"/>
</g>
<g filter="url(#filter4_bi_370_6377)">
<path d="M1.54663 11.5868V12.2769C1.54726 12.7664 1.80159 13.2557 2.30961 13.5097L12.9246 18.9552C14.2458 19.6158 15.8008 19.6158 17.122 18.9552L27.737 13.5097C28.245 13.2557 28.4993 12.7664 28.5 12.2769V11.5898C28.4989 12.0789 28.2446 12.5675 27.737 12.8214L17.122 18.1288C15.8008 18.7894 14.2458 18.7894 12.9246 18.1288L2.30961 12.8214C1.80096 12.567 1.54663 12.0769 1.54663 11.5868Z" fill="#E4E8F3" fill-opacity="0.4"/>
</g>
<g filter="url(#filter5_f_370_6377)">
<path d="M17.1221 18.1289L27.737 12.8214C28.2001 12.5898 28.4524 12.1629 28.4939 11.7184C28.1897 12.4146 28.0636 12.4566 27.679 12.6854L17.0892 17.9248C16.7877 18.0599 15.9681 18.411 14.9705 18.411C13.973 18.411 13.2107 18.0599 12.9444 17.9248C9.54256 16.2206 2.63734 12.8496 2.30967 12.675C1.982 12.5004 1.69301 12.1069 1.58948 11.9319C1.68141 12.2958 1.92147 12.6273 2.30967 12.8214L12.9246 18.1289C14.2458 18.7894 15.8009 18.7894 17.1221 18.1289Z" fill="url(#paint3_linear_370_6377)"/>
</g>
<g filter="url(#filter6_bi_370_6377)">
<path d="M12.9246 0.495438C14.2458 -0.165145 15.8008 -0.165146 17.122 0.495437L27.737 5.80292C28.7543 6.31158 28.7543 7.76333 27.737 8.27199L17.122 13.5795C15.8008 14.2401 14.2458 14.2401 12.9246 13.5795L2.30961 8.27199C1.2923 7.76334 1.2923 6.31158 2.30961 5.80292L12.9246 0.495438Z" fill="#E4E8F3" fill-opacity="0.4"/>
</g>
<g filter="url(#filter7_bi_370_6377)">
<path d="M1.54663 7.03745V7.72757C1.54726 8.21707 1.80159 8.70627 2.30961 8.96029L12.9246 14.4058C14.2458 15.0664 15.8008 15.0664 17.122 14.4058L27.737 8.96029C28.245 8.70627 28.4993 8.21707 28.5 7.72757V7.04044C28.4989 7.52954 28.2446 8.01817 27.737 8.27198L17.122 13.5795C15.8008 14.24 14.2458 14.24 12.9246 13.5795L2.30961 8.27198C1.80096 8.01765 1.54663 7.52755 1.54663 7.03745Z" fill="#E4E8F3" fill-opacity="0.4"/>
</g>
<g filter="url(#filter8_f_370_6377)">
<path d="M17.1221 13.5795L27.737 8.27199C28.2001 8.04046 28.4524 7.61352 28.4939 7.16907C28.1897 7.86519 28.0636 7.90723 27.679 8.13602L17.0892 13.3754C16.7877 13.5105 15.9681 13.8616 14.9705 13.8616C13.973 13.8616 13.2107 13.5105 12.9444 13.3754C9.54256 11.6713 2.63734 8.3002 2.30967 8.12563C1.982 7.95105 1.69301 7.55749 1.58948 7.38253C1.68141 7.74647 1.92147 8.0779 2.30967 8.272L12.9246 13.5795C14.2458 14.2401 15.8009 14.2401 17.1221 13.5795Z" fill="url(#paint4_linear_370_6377)"/>
</g>
<defs>
<filter id="filter0_i_370_6377" x="1.54663" y="15.6362" width="26.9534" height="8.36377" filterUnits="userSpaceOnUse" color-interpolation-filters="sRGB">
<feFlood flood-opacity="0" result="BackgroundImageFix"/>
<feBlend mode="normal" in="SourceGraphic" in2="BackgroundImageFix" result="shape"/>
<feColorMatrix in="SourceAlpha" type="matrix" values="0 0 0 0 0 0 0 0 0 0 0 0 0 0 0 0 0 0 127 0" result="hardAlpha"/>
<feOffset dy="-0.5"/>
<feGaussianBlur stdDeviation="0.5"/>
<feComposite in2="hardAlpha" operator="arithmetic" k2="-1" k3="1"/>
<feColorMatrix type="matrix" values="0 0 0 0 0 0 0 0 0 0 0 0 0 0 0 0 0 0 0.15 0"/>
<feBlend mode="darken" in2="shape" result="effect1_innerShadow_370_6377"/>
</filter>
<filter id="filter1_i_370_6377" x="1.54663" y="9.09875" width="26.9534" height="14.5749" filterUnits="userSpaceOnUse" color-interpolation-filters="sRGB">
<feFlood flood-opacity="0" result="BackgroundImageFix"/>
<feBlend mode="normal" in="SourceGraphic" in2="BackgroundImageFix" result="shape"/>
<feColorMatrix in="SourceAlpha" type="matrix" values="0 0 0 0 0 0 0 0 0 0 0 0 0 0 0 0 0 0 127 0" result="hardAlpha"/>
<feOffset dy="0.5"/>
<feGaussianBlur stdDeviation="0.5"/>
<feComposite in2="hardAlpha" operator="arithmetic" k2="-1" k3="1"/>
<feColorMatrix type="matrix" values="0 0 0 0 0 0 0 0 0 0 0 0 0 0 0 0 0 0 0.1 0"/>
<feBlend mode="darken" in2="shape" result="effect1_innerShadow_370_6377"/>
</filter>
<filter id="filter2_f_370_6377" x="0.589478" y="15.2678" width="28.9044" height="8.90582" filterUnits="userSpaceOnUse" color-interpolation-filters="sRGB">
<feFlood flood-opacity="0" result="BackgroundImageFix"/>
<feBlend mode="normal" in="SourceGraphic" in2="BackgroundImageFix" result="shape"/>
<feGaussianBlur stdDeviation="0.5" result="effect1_foregroundBlur_370_6377"/>
</filter>
<filter id="filter3_bi_370_6377" x="-18.4534" y="-15.4506" width="66.9534" height="54.0749" filterUnits="userSpaceOnUse" color-interpolation-filters="sRGB">
<feFlood flood-opacity="0" result="BackgroundImageFix"/>
<feGaussianBlur in="BackgroundImageFix" stdDeviation="10"/>
<feComposite in2="SourceAlpha" operator="in" result="effect1_backgroundBlur_370_6377"/>
<feBlend mode="normal" in="SourceGraphic" in2="effect1_backgroundBlur_370_6377" result="shape"/>
<feColorMatrix in="SourceAlpha" type="matrix" values="0 0 0 0 0 0 0 0 0 0 0 0 0 0 0 0 0 0 127 0" result="hardAlpha"/>
<feOffset dy="0.5"/>
<feGaussianBlur stdDeviation="0.5"/>
<feComposite in2="hardAlpha" operator="arithmetic" k2="-1" k3="1"/>
<feColorMatrix type="matrix" values="0 0 0 0 0.342674 0 0 0 0 0.352133 0 0 0 0 0.579167 0 0 0 0.1 0"/>
<feBlend mode="darken" in2="shape" result="effect2_innerShadow_370_6377"/>
</filter>
<filter id="filter4_bi_370_6377" x="-18.4534" y="-8.41318" width="66.9534" height="47.8638" filterUnits="userSpaceOnUse" color-interpolation-filters="sRGB">
<feFlood flood-opacity="0" result="BackgroundImageFix"/>
<feGaussianBlur in="BackgroundImageFix" stdDeviation="10"/>
<feComposite in2="SourceAlpha" operator="in" result="effect1_backgroundBlur_370_6377"/>
<feBlend mode="normal" in="SourceGraphic" in2="effect1_backgroundBlur_370_6377" result="shape"/>
<feColorMatrix in="SourceAlpha" type="matrix" values="0 0 0 0 0 0 0 0 0 0 0 0 0 0 0 0 0 0 127 0" result="hardAlpha"/>
<feOffset dy="-0.5"/>
<feGaussianBlur stdDeviation="0.5"/>
<feComposite in2="hardAlpha" operator="arithmetic" k2="-1" k3="1"/>
<feColorMatrix type="matrix" values="0 0 0 0 0.341176 0 0 0 0 0.352941 0 0 0 0 0.580392 0 0 0 0.25 0"/>
<feBlend mode="darken" in2="shape" result="effect2_innerShadow_370_6377"/>
</filter>
<filter id="filter5_f_370_6377" x="0.589478" y="10.7184" width="28.9044" height="8.90582" filterUnits="userSpaceOnUse" color-interpolation-filters="sRGB">
<feFlood flood-opacity="0" result="BackgroundImageFix"/>
<feBlend mode="normal" in="SourceGraphic" in2="BackgroundImageFix" result="shape"/>
<feGaussianBlur stdDeviation="0.5" result="effect1_foregroundBlur_370_6377"/>
</filter>
<filter id="filter6_bi_370_6377" x="-18.4534" y="-20" width="66.9534" height="54.0749" filterUnits="userSpaceOnUse" color-interpolation-filters="sRGB">
<feFlood flood-opacity="0" result="BackgroundImageFix"/>
<feGaussianBlur in="BackgroundImageFix" stdDeviation="10"/>
<feComposite in2="SourceAlpha" operator="in" result="effect1_backgroundBlur_370_6377"/>
<feBlend mode="normal" in="SourceGraphic" in2="effect1_backgroundBlur_370_6377" result="shape"/>
<feColorMatrix in="SourceAlpha" type="matrix" values="0 0 0 0 0 0 0 0 0 0 0 0 0 0 0 0 0 0 127 0" result="hardAlpha"/>
<feOffset dy="0.5"/>
<feGaussianBlur stdDeviation="0.5"/>
<feComposite in2="hardAlpha" operator="arithmetic" k2="-1" k3="1"/>
<feColorMatrix type="matrix" values="0 0 0 0 0.342674 0 0 0 0 0.352133 0 0 0 0 0.579167 0 0 0 0.1 0"/>
<feBlend mode="darken" in2="shape" result="effect2_innerShadow_370_6377"/>
</filter>
<filter id="filter7_bi_370_6377" x="-18.4534" y="-12.9626" width="66.9534" height="47.8638" filterUnits="userSpaceOnUse" color-interpolation-filters="sRGB">
<feFlood flood-opacity="0" result="BackgroundImageFix"/>
<feGaussianBlur in="BackgroundImageFix" stdDeviation="10"/>
<feComposite in2="SourceAlpha" operator="in" result="effect1_backgroundBlur_370_6377"/>
<feBlend mode="normal" in="SourceGraphic" in2="effect1_backgroundBlur_370_6377" result="shape"/>
<feColorMatrix in="SourceAlpha" type="matrix" values="0 0 0 0 0 0 0 0 0 0 0 0 0 0 0 0 0 0 127 0" result="hardAlpha"/>
<feOffset dy="-0.5"/>
<feGaussianBlur stdDeviation="0.5"/>
<feComposite in2="hardAlpha" operator="arithmetic" k2="-1" k3="1"/>
<feColorMatrix type="matrix" values="0 0 0 0 0.341176 0 0 0 0 0.352941 0 0 0 0 0.580392 0 0 0 0.25 0"/>
<feBlend mode="darken" in2="shape" result="effect2_innerShadow_370_6377"/>
</filter>
<filter id="filter8_f_370_6377" x="0.589478" y="6.16907" width="28.9044" height="8.90585" filterUnits="userSpaceOnUse" color-interpolation-filters="sRGB">
<feFlood flood-opacity="0" result="BackgroundImageFix"/>
<feBlend mode="normal" in="SourceGraphic" in2="BackgroundImageFix" result="shape"/>
<feGaussianBlur stdDeviation="0.5" result="effect1_foregroundBlur_370_6377"/>
</filter>
<linearGradient id="paint0_linear_370_6377" x1="1.54663" y1="20.0681" x2="28.4999" y2="20.0681" gradientUnits="userSpaceOnUse">
<stop stop-color="#65DD91"/>
<stop offset="0.48" stop-color="#04773B"/>
<stop offset="1" stop-color="#AFFFCC"/>
</linearGradient>
<radialGradient id="paint1_radial_370_6377" cx="0" cy="0" r="1" gradientUnits="userSpaceOnUse" gradientTransform="translate(5.70662 16.1362) scale(17.3911)">
<stop stop-color="#65DD91"/>
<stop offset="1" stop-color="#CDFFDF"/>
</radialGradient>
<linearGradient id="paint2_linear_370_6377" x1="1.58948" y1="16.2678" x2="28.4939" y2="16.2678" gradientUnits="userSpaceOnUse">
<stop stop-color="white" stop-opacity="0.24"/>
<stop offset="0.130208" stop-color="white" stop-opacity="0.865636"/>
<stop offset="0.489583" stop-color="white" stop-opacity="0.494792"/>
<stop offset="1" stop-color="white" stop-opacity="0"/>
</linearGradient>
<linearGradient id="paint3_linear_370_6377" x1="1.58948" y1="11.7184" x2="28.4939" y2="11.7184" gradientUnits="userSpaceOnUse">
<stop stop-color="white" stop-opacity="0.24"/>
<stop offset="0.130208" stop-color="white" stop-opacity="0.865636"/>
<stop offset="0.489583" stop-color="white" stop-opacity="0.494792"/>
<stop offset="1" stop-color="white" stop-opacity="0"/>
</linearGradient>
<linearGradient id="paint4_linear_370_6377" x1="1.58948" y1="7.16907" x2="28.4939" y2="7.16907" gradientUnits="userSpaceOnUse">
<stop stop-color="white" stop-opacity="0.24"/>
<stop offset="0.130208" stop-color="white" stop-opacity="0.865636"/>
<stop offset="0.489583" stop-color="white" stop-opacity="0.494792"/>
<stop offset="1" stop-color="white" stop-opacity="0"/>
</linearGradient>
</defs>
</svg>
