<svg width="73" height="73" viewBox="0 0 73 73" fill="none" xmlns="http://www.w3.org/2000/svg">
<rect width="73" height="73" rx="36.5" fill="#65DD91"/>
<g clip-path="url(#clip0_298_5109)">
<path d="M47.225 54H24.725C24.3935 54 24.0755 54.1317 23.8411 54.3661C23.6067 54.6005 23.475 54.9185 23.475 55.25C23.475 55.5815 23.6067 55.8995 23.8411 56.1339C24.0755 56.3683 24.3935 56.5 24.725 56.5H47.225C47.5565 56.5 47.8745 56.3683 48.1089 56.1339C48.3433 55.8995 48.475 55.5815 48.475 55.25C48.475 54.9185 48.3433 54.6005 48.1089 54.3661C47.8745 54.1317 47.5565 54 47.225 54Z" fill="#353636"/>
<path d="M32.4 26.3375C32.4627 26.7268 32.4427 27.125 32.3415 27.5062C32.2403 27.8873 32.0601 28.243 31.8125 28.55C33.3443 31.1683 35.4516 33.4038 37.975 35.0875C38.4 35.375 38.8375 35.625 39.225 35.875C39.622 35.436 40.1459 35.1316 40.7238 35.0039C41.3017 34.8762 41.905 34.9317 42.45 35.1625C44.3984 32.5818 45.7284 29.5882 46.3375 26.4125C41.8322 24.8213 36.9221 24.7948 32.4 26.3375Z" fill="#353636"/>
<path d="M36.1875 16.5C31.5462 16.5 27.095 18.3437 23.8131 21.6256C20.5312 24.9075 18.6875 29.3587 18.6875 34C18.6875 34.5625 18.6875 35.1125 18.775 35.6625C19.0971 39.0378 20.3928 42.2469 22.5046 44.8996C24.6165 47.5523 27.4534 49.5344 30.6706 50.6049C33.8879 51.6754 37.3468 51.7883 40.627 50.9297C43.9071 50.0712 46.8672 48.2782 49.1475 45.7688C51.4277 43.2594 52.9299 40.1417 53.4713 36.7945C54.0127 33.4474 53.5702 30.015 52.1974 26.9147C50.8246 23.8144 48.5807 21.1796 45.7385 19.3307C42.8963 17.4818 39.5782 16.4984 36.1875 16.5ZM49.125 40.3625C47.3028 40.3562 45.4886 40.121 43.725 39.6625C43.306 40.232 42.6911 40.6263 41.9987 40.7694C41.3063 40.9125 40.5854 40.7942 39.975 40.4375C37.4052 42.5054 34.4212 43.9974 31.225 44.8125C31.128 45.327 30.8948 45.806 30.5496 46.1995C30.2044 46.5931 29.7599 46.8868 29.2625 47.05L28.9 47.125C27.2829 46.231 25.846 45.0441 24.6625 43.625H25.4875C25.607 43.0298 25.9096 42.4868 26.3529 42.072C26.7961 41.6571 27.358 41.3912 27.9598 41.3113C28.5616 41.2314 29.1733 41.3416 29.7095 41.6265C30.2456 41.9113 30.6793 42.3566 30.95 42.9C33.7836 42.1521 36.4311 40.824 38.725 39C38.5248 38.5402 38.4473 38.0363 38.5 37.5375C37.975 37.2375 37.45 36.925 36.9375 36.5875C34.2143 34.7819 31.9294 32.3902 30.25 29.5875C29.7481 29.7253 29.2182 29.7249 28.7166 29.5862C28.2149 29.4476 27.76 29.1759 27.4 28.8C25.0749 30.5032 22.9749 32.4941 21.15 34.725V34.0125C21.1561 33.2884 21.2145 32.5657 21.325 31.85C22.8244 30.01 24.5946 28.4084 26.575 27.1C26.5047 26.5482 26.5974 25.9878 26.8418 25.4881C27.0861 24.9883 27.4713 24.5709 27.95 24.2875C27.8 23.75 27.65 23.2125 27.5375 22.6625C27.5375 22.4875 27.5375 22.3 27.4 21.8625C27.9456 21.4618 28.5178 21.0984 29.1125 20.775C29.2375 21.5125 29.2875 21.9 29.375 22.2875C29.4625 22.675 29.625 23.35 29.775 23.875H30.0875C30.6232 23.9989 31.1129 24.2719 31.5 24.6625C36.3933 22.9368 41.7246 22.906 46.6375 24.575V23.325C48.0329 24.6999 49.1456 26.3349 49.9125 28.1375C49.3042 27.7792 48.6875 27.4542 48.0625 27.1625C47.353 30.5103 45.9053 33.6577 43.825 36.375C44.0938 36.8247 44.2363 37.3386 44.2375 37.8625C46.2925 38.2879 48.3895 38.4766 50.4875 38.425C50.2779 39.0794 50.0231 39.7184 49.725 40.3375L49.125 40.3625Z" fill="#353636"/>
</g>
<defs>
<clipPath id="clip0_298_5109">
<rect width="45" height="45" fill="white" transform="translate(14 14)"/>
</clipPath>
</defs>
</svg>
