<svg width="27" height="27" viewBox="0 0 27 27" fill="none" xmlns="http://www.w3.org/2000/svg">
<rect x="0.543823" y="0.431641" width="25.9875" height="25.9875" rx="12.9937" fill="#C2FF66"/>
<path fill-rule="evenodd" clip-rule="evenodd" d="M11.7656 8.996C11.9634 8.996 12.1372 9.1271 12.1915 9.31727L12.6718 10.9983C12.8821 11.7341 13.4572 12.3092 14.193 12.5195L15.874 12.9998C16.0642 13.0541 16.1953 13.2279 16.1953 13.4257C16.1953 13.6235 16.0642 13.7973 15.874 13.8516L14.193 14.3319C13.4572 14.5421 12.8821 15.1173 12.6718 15.8531L12.1915 17.5341C12.1372 17.7243 11.9634 17.8554 11.7656 17.8554C11.5678 17.8554 11.394 17.7243 11.3397 17.5341L10.8594 15.8531C10.6492 15.1173 10.074 14.5421 9.33824 14.3319L7.65721 13.8516C7.46705 13.7973 7.33594 13.6235 7.33594 13.4257C7.33594 13.2279 7.46705 13.0541 7.65721 12.9998L9.33824 12.5195C10.074 12.3092 10.6492 11.7341 10.8594 10.9983L11.3397 9.31727C11.394 9.1271 11.5678 8.996 11.7656 8.996Z" fill="#0F172A"/>
<path fill-rule="evenodd" clip-rule="evenodd" d="M17.0812 7.22412C17.2845 7.22412 17.4617 7.36246 17.511 7.55965L17.6639 8.17122C17.8028 8.72671 18.2365 9.16043 18.792 9.2993L19.4035 9.45219C19.6007 9.50149 19.7391 9.67867 19.7391 9.88193C19.7391 10.0852 19.6007 10.2624 19.4035 10.3117L18.792 10.4646C18.2365 10.6034 17.8028 11.0372 17.6639 11.5926L17.511 12.2042C17.4617 12.4014 17.2845 12.5397 17.0812 12.5397C16.878 12.5397 16.7008 12.4014 16.6515 12.2042L16.4986 11.5926C16.3597 11.0372 15.926 10.6034 15.3705 10.4646L14.759 10.3117C14.5618 10.2624 14.4234 10.0852 14.4234 9.88193C14.4234 9.67867 14.5618 9.50149 14.759 9.45219L15.3705 9.2993C15.926 9.16043 16.3597 8.72671 16.4986 8.17122L16.6515 7.55965C16.7008 7.36246 16.878 7.22412 17.0812 7.22412Z" fill="#0F172A"/>
<path fill-rule="evenodd" clip-rule="evenodd" d="M16.1953 15.1976C16.386 15.1976 16.5553 15.3196 16.6155 15.5004L16.8484 16.199C16.9366 16.4635 17.1442 16.6711 17.4087 16.7593L18.1073 16.9922C18.2881 17.0525 18.4102 17.2217 18.4102 17.4124C18.4102 17.6031 18.2881 17.7723 18.1073 17.8326L17.4087 18.0655C17.1442 18.1537 16.9366 18.3613 16.8484 18.6258L16.6155 19.3244C16.5553 19.5052 16.386 19.6272 16.1953 19.6272C16.0046 19.6272 15.8354 19.5052 15.7751 19.3244L15.5422 18.6258C15.454 18.3613 15.2465 18.1537 14.9819 18.0655L14.2834 17.8326C14.1025 17.7723 13.9805 17.6031 13.9805 17.4124C13.9805 17.2217 14.1025 17.0525 14.2834 16.9922L14.9819 16.7593C15.2465 16.6711 15.454 16.4635 15.5422 16.199L15.7751 15.5004C15.8354 15.3196 16.0046 15.1976 16.1953 15.1976Z" fill="#0F172A"/>
</svg>
