<svg width="44" height="44" viewBox="0 0 44 44" fill="none" xmlns="http://www.w3.org/2000/svg">
<rect x="0.418701" y="0.0593262" width="43.1156" height="43.1156" rx="21.5578" fill="#65DD91"/>
<g clip-path="url(#clip0_353_7142)">
<path d="M28.3112 31.9534H15.0221C14.8263 31.9534 14.6385 32.0312 14.5001 32.1696C14.3616 32.3081 14.2838 32.4958 14.2838 32.6917C14.2838 32.8875 14.3616 33.0752 14.5001 33.2137C14.6385 33.3521 14.8263 33.4299 15.0221 33.4299H28.3112C28.507 33.4299 28.6947 33.3521 28.8332 33.2137C28.9717 33.0752 29.0494 32.8875 29.0494 32.6917C29.0494 32.4958 28.9717 32.3081 28.8332 32.1696C28.6947 32.0312 28.507 31.9534 28.3112 31.9534Z" fill="#353636"/>
<path d="M19.5549 15.615C19.5919 15.845 19.5801 16.0801 19.5203 16.3053C19.4606 16.5304 19.3541 16.7404 19.2079 16.9218C20.1126 18.4682 21.3572 19.7886 22.8476 20.783C23.0986 20.9528 23.357 21.1004 23.5859 21.2481C23.8204 20.9888 24.1298 20.809 24.4711 20.7336C24.8124 20.6582 25.1688 20.6909 25.4907 20.8273C26.6415 19.303 27.427 17.535 27.7867 15.6593C25.1258 14.7195 22.2258 14.7039 19.5549 15.615Z" fill="#353636"/>
<path d="M21.792 9.80469C19.0507 9.80469 16.4217 10.8937 14.4834 12.832C12.545 14.7704 11.4561 17.3994 11.4561 20.1406C11.4561 20.4729 11.4561 20.7977 11.5077 21.1225C11.698 23.1161 12.4633 25.0114 13.7106 26.5782C14.9578 28.1449 16.6334 29.3156 18.5336 29.9479C20.4338 30.5802 22.4767 30.6468 24.4141 30.1397C26.3514 29.6327 28.0997 28.5737 29.4465 27.0916C30.7932 25.6095 31.6804 23.768 32.0002 21.7911C32.32 19.8142 32.0586 17.787 31.2478 15.9559C30.437 14.1247 29.1117 12.5686 27.433 11.4766C25.7544 10.3846 23.7946 9.80373 21.792 9.80469ZM29.4332 23.8985C28.357 23.8947 27.2855 23.7558 26.2438 23.485C25.9964 23.8214 25.6332 24.0543 25.2242 24.1388C24.8153 24.2233 24.3895 24.1535 24.029 23.9428C22.5112 25.1641 20.7488 26.0453 18.861 26.5268C18.8038 26.8306 18.666 27.1135 18.4621 27.346C18.2582 27.5784 17.9957 27.7519 17.7019 27.8483L17.4878 27.8926C16.5327 27.3645 15.684 26.6636 14.985 25.8254H15.4723C15.5429 25.4738 15.7216 25.1531 15.9834 24.9081C16.2452 24.6631 16.577 24.5061 16.9325 24.4589C17.2879 24.4117 17.6493 24.4768 17.9659 24.645C18.2826 24.8132 18.5387 25.0762 18.6986 25.3972C20.3722 24.9554 21.9359 24.1711 23.2907 23.0938C23.1725 22.8222 23.1267 22.5245 23.1578 22.23C22.8477 22.0528 22.5377 21.8682 22.235 21.6689C20.6266 20.6025 19.2771 19.1899 18.2852 17.5345C17.9887 17.6159 17.6758 17.6156 17.3795 17.5337C17.0832 17.4519 16.8145 17.2914 16.6019 17.0694C15.2286 18.0754 13.9883 19.2512 12.9105 20.5688V20.148C12.914 19.7203 12.9486 19.2935 13.0138 18.8708C13.8994 17.784 14.9449 16.8381 16.1146 16.0653C16.0731 15.7394 16.1279 15.4084 16.2722 15.1133C16.4165 14.8181 16.644 14.5716 16.9267 14.4042C16.8381 14.0867 16.7495 13.7693 16.6831 13.4444C16.6831 13.3411 16.6831 13.2303 16.6019 12.9719C16.9241 12.7352 17.2621 12.5206 17.6133 12.3296C17.6871 12.7652 17.7167 12.9941 17.7684 13.2229C17.82 13.4518 17.916 13.8505 18.0046 14.1605H18.1892C18.5056 14.2337 18.7948 14.395 19.0234 14.6257C21.9135 13.6064 25.0623 13.5882 27.964 14.574V13.8357C28.7882 14.6478 29.4453 15.6134 29.8983 16.6781C29.539 16.4664 29.1748 16.2745 28.8057 16.1022C28.3866 18.0795 27.5316 19.9384 26.3029 21.5434C26.4616 21.809 26.5458 22.1125 26.5465 22.4219C27.7603 22.6731 28.9988 22.7846 30.2379 22.7541C30.1141 23.1406 29.9636 23.5181 29.7876 23.8837L29.4332 23.8985Z" fill="#353636"/>
</g>
<defs>
<clipPath id="clip0_353_7142">
<rect width="26.5781" height="26.5781" fill="white" transform="translate(8.6875 8.32788)"/>
</clipPath>
</defs>
</svg>
